<!-- SPDX-License-Identifier: MIT -->
<svg xmlns="http://www.w3.org/2000/svg" width="877" height="877" viewBox="0 0 877 877"><path fill="#0e0e0e" d="M446 1q11-1 21 3l3 2 46 20 1 1 22 13 7 5q-3-14-10-26l-2-6-1-3V3q10 1 19 6l3 2 20 11 4 3q13 8 25 18l3 3 11 9 2 1 24 25-4-30-1-18 2-1c33 14 55 55 69 86v-2l1-10 1-4c1-14 1-14 4-20l3-2q7 3 10 10l1 2c16 25 28 60 22 90l-5 17 2 1q27 10 41 36 4 8 3 17-4 1-9-1l-3-1-2-1 2 3c18 38 18 38 18 57l-1 2q-7-1-11-6l-5-2 4 16 4 19v3c2 12 2 12 0 17l-6-1v-2h-2v3q0 17-3 33l-1 4-3 15-3 17-1 4-3 27 2 1q11 8 15 21c10 40-6 95-26 130q-6 10-16 16-9 7-11 19l-4 12-1 2-14 35-1 3q-23 53-62 93l-7 7-10 11-8 7-19 15-2 1c-43 32-91 51-146 43q-30-5-58-18l-3-1-47-25-3-2-41-28-6-5-22-19-8-7-9-10-4-4q-26-29-44-61l-2-3-6-12c-5-12-5-12-10-14l-13-1c-19 0-37-14-50-26l-3-3c-29-27-49-72-50-112 0-24 3-45 20-63q6-7 15-11l-2-16-1-35v-3l1-30-2 2q-4 7-7 7h-2q-4-6-3-14 1-42 18-79l-19 12h-8c-2-27 23-56 39-76l4-5 2-3 1-1-8 2h-3l-6 2q-9 4-18 4l-1-1c0-13 11-23 19-31l3-3 21-19 3-3 21-14-3-2-4-2-2-1-2-1-2-1-5-4v-5c11-13 30-19 46-24l3-2-2-1-7-3-3-1-3-1-2-1-5-4q1-4 5-6 29-11 61-11h6l4-1-2-1q-5-5-9-11c10-6 22-5 33-5h7l25 1-1-2-5-8-2-2c-8-13-8-13-8-16q5-4 12-3h7l3 1 28 4 3 1 31 7-2-2c-10-11-10-11-10-16h-2l-3-6-2-3-1-8 5-1 16 2 3 1q30 7 58 16l14 4 5 2 3 1-2-3-5-11-2-5c-3-5-3-5-3-9z"/><path fill="#f5c9a6" d="M240 455q9 5 11 14l1 6v3l3 11c10 54 10 54 29 70 13 9 31 10 46 12h3l29 1h9q23 0 45-4l3-1q29-7 46-32 14-25 18-54 1-11 10-17 9-5 20-3 8 2 13 8 4 10 5 19 6 25 18 48l2 3q13 24 40 32 21 4 42 3h2c28 0 59-1 80-21l8-10 1-2q4-6 6-14l1 7v3l-1 2v3l-1 15-3 22-4 33-2 11h-5l1 2q2 13-3 25l-6-5q-3-3-8-3-1 12 6 22 2 4 0 9h-3l-4-5q-5-6-12-9l-3 1q1 10 7 18 5 7 5 15l-1 3q-5-3-8-7-4-6-11-9h-3q0 5 2 11l2 3 1 3c9 15 9 15 8 24l-10-11c-11-13-11-13-16-13h-2q0 9 5 16l3 5 2 3q5 7 4 15l-2 2-2-2c-14-18-14-18-20-22h-4q0 8 4 16l3 7q7 12 7 25v5h-2l-4-7-3-4-1-2-3-4-1-5h2c-5-11-12-23-23-28h-7l5 11 3 4 4 7q8 13 12 28l2 5 1 9-3-2-2-2q-8-9-14-21c-7-15-7-15-15-20l-4-1q2 12 9 23l3 7 11 20q3 5 3 12-5-2-8-8c-13-24-13-24-21-30l-6-1q1 8 5 15l1 2 3 7 5 11c5 11 5 11 5 17l-1 2h-3l-1-2c-15-32-15-32-23-39l-5-1q2 11 7 23l1 4 6 14q3 4 3 10l-3 2-6-12q-2-9-7-16l-2-3q-3-6-10-11h-4q0 11 5 23l3 6 1 3 3 9 1 3 1 9-2 1-1-3-2-1-3-4-1-3q-4-22-20-37h-3q-1 9 3 18l1 2 5 13q6 10 5 21l-4-1-3-6-1-2-13-29q-3-10-9-19v-2l-5 1q1 17 8 32 6 14 5 29-3 0-5-4-5-12-9-26-1-8-7-15-4-7-5-15h-7q-2 7 1 13l2 5v3l8 32 1 3 1 4 1 3v7h-7v-2l-2-10v-3q-2-14-8-25v-2l-5 1-1 11v10l1 23-6 1q-3-2-2-5v-12l-1-22-1-17v-14q-7 1-7 3-4 9-4 20l-1 11v3l-4 29h-6q-2-2-1-6l2-19c3-19 3-19 1-23l-2-1-2-3 2-2q5-4 4-9v-7l-4-2q-3 1-5 4-2 7-1 14l3 1-2 2q-5 6-7 14l-2 5-1 3-4 3 1 2q2 10-4 19l-3 1c-4-13 1-29 5-42l2-18h-4l-18 36v2l-3 5q-1 4-5 6h-2q0-11 6-21l5-18 2-5 1-13q-9 4-13 14l-9 20-9 16-3-1q-1-7 3-14v-2l6-11 6-15 1-2 1-10q-6 0-10 6-7 9-11 19l-8 16-6 4q2-13 9-24c11-24 11-24 10-35q-5 0-8 4l-11 18-8 14-2 4-3 5-4 3q4-18 14-35l5-10 2-4 2-10-4-1c-15 10-26 34-32 51h-4q0-5 2-11l2-3 1-3 2-4 13-26 2-2 1-3 4-11v-4c-11 3-17 13-22 22l-5 8-4 8-1 2-2 4-5 10-4-1c1-10 8-19 13-28l13-22 2-3 5-15-4-1q-9 7-16 17l-1 2q-10 11-16 24l-1 3-4 7-2 4-3-1q0-6 3-11l5-11 5-12 6-14 1-2 1-14q-5 0-9 5-6 7-10 16l-2 4-10 24-3 4-2 1-1-3q0-7 4-14l1-3 9-19 2-2 5-12q6-9 7-22-6-1-7 2-14 18-24 40l-1 2-4 9-1 2-4 5-2-2q1-7 4-14l1-2 9-15 15-30 1-3q3-5 2-11c-21 9-32 40-42 59h-3c-1-12 8-23 13-33l11-21 2-2q4-9 5-19-13 5-19 17l-22 40-2 4h-2c-2-13 7-25 14-36 15-26 15-26 14-35l-7 1q-21 20-31 48h-4q-1-10 6-18l3-6 1-2 7-12 1-2 2-5 1-2 2-9q-4 0-8 2a98 98 0 0 0-26 37l-3-1 4-13 11-22 2-4q5-8 5-18-10 2-15 11l-5 8-2-1 8-36q-5 2-9 8l-2 3-2 3-1 2-3 4q-2-10 3-19l4-6q4-9 4-19-9 3-14 12h-2q-1-7 4-15t6-17q-6 1-9 7l-2 3-2 2q-1-6 2-12l2-4 1-2 5-12-3 1v-22l-5 2 2-8q3-8 1-14-2-9-1-19v-5l-1-7v-2l1-6 5-3 2-1c11-5 11-5 17-2"/><path fill="#f6c7a3" d="M399 210q11 1 20 4l9 2 9 3 2 1h5l-2-3 11 5 3 1 2 1v-3l-3-1 1-2 3 1 12 4h3l5 1 1-11q14 0 27 7l3 1 11 5 19 8-1-10-2-7q8 4 12 11 6-2 8-7l2-2 2-2 4 2 2 5v3l1 2q8-8 12-17l2 1 1 4v3l1 3v2l1 7 2-2 2-2 3-1 4-2 1 4 2-1 13-7 9-4 9-4-2 5-2 5q10-1 20-6l8-1v3h4l-1 5h3a59 59 0 0 1 49 33l-5-1 1 2c9 16 11 34 15 52l-7-3a78 78 0 0 0 20 27l-2 1-7-5 1 4-1 4h-3l4 8 1 3 2 4 2 4-12-5 1 2q4 12 6 25l5 20 5 25-6-1-6-1q-9-3-15-11a62 62 0 0 0-40-23c-29-4-74-1-100 14q-5 6-6 14 0 6-4 6l-7 2-6 2q-35 6-72-2l-66-9h-4l-54-3h-2l-50 1v-1l49-4h2q60-2 118 13v-10l-1-8-6-4-8-4q-13-6-27-7h-4l-39-1h-8c-30-1-30-1-43 4l-3 1-5 2-2 1q-11 5-20 13-7 7-16 7l-7 1h-3l-19 4-4 1q-14 3-26 9v-2h2v-2c4-14 14-26 21-38l7-10 2-3 5-10-2-1 3-10q-7 3-13 8l-2-1 2-2 11-16-3 1v-2l-1-2-2-1v-6l1-3 1-7-6 2-4 2q-3 1-5 4h-2q3-6 9-11 5-5 4-15l1-28 2 4v-4q-1-16 11-28 10-8 24-11l-3-3q30-13 62-13l-3-2-3-3v-1h27q19 0 39 2l-3-2-8-5z"/><path fill="#f6c8a5" d="M453 442q10 11 10 26c0 27-9 57-28 77-25 22-63 20-94 19q-16-1-32-6l-3-1q-9-3-16-10l-2-1c-17-18-21-50-20-73q-1-23 15-38l2 1-1 1-2 2-2 2-2 7q11-4 21-11c39-25 117-21 154 5"/><path fill="#f6c7a4" d="M716 439c11 12 10 29 10 44 0 22-4 49-20 65-19 16-47 17-70 17h-3c-23 0-43-2-61-18-16-16-24-48-24-71q0-15 10-25l2-2c28-28 124-36 156-10"/><path fill="#0f0f0f" d="M660 62q7 4 10 10l2 3 3 4 3 5c12 19 23 45 20 67l-3 7h-2v3l5-5 2-2q6-6 11-16l7-9q3 6 2 12v8l2-4q3 6 2 11v7l1-12v-10l1-18v-19c13 13 14 44 15 61q0 17-9 31l2 1-9 12h7c7 1 7 1 9 3l5 2a56 56 0 0 1 27 20l1 2-1 2-21-10 5 4c11 11 19 28 24 43l1 3c2 6 2 6 1 9l-2-1-14-10-8-6-5-1-2-3 7 11 8 15 1 2c9 20 9 20 7 25l-1-2q-3-8-10-13h-2c7 23 7 23 12 33q3 7 2 14l-2-1v-4l-2-1-5-5-5-5 1 3 4 14 1 3 1 6-9-12 2 8c5 25 5 25 5 37h-2l-1-3-2-3-2-3-7-11 2 9v3q1 7 6 12l4 16 1 8-4-4-2 2-3-2 1 3 1 6q-5-3-9-8l-1-2-6-14q-4-8-13-14l-3-3v-2h-2l-1-4q-1-12-5-23l-1-5 3 1 7 2-1-2-3-6-1-3-1-2-1-2-1-2 1-2 3 2v-3l-2-1h3l-1-4 2 1 5 2-2-2q-11-10-17-24l1-2 2 2 4 2-3-14-1-5q-4-18-12-35l5 2a61 61 0 0 0-39-31l-6-1-4-1h-2l1-5h-4v-3l-3-1q3-7 11-12l12-9 5-5 3-2 2-2-8 4q-6 6-15 9l-2 2-12 4q2-10 9-19l1-20v2q-5 20-21 33l-8 3 7-13 5-6 3-5q5-9 4-19v-27q7 3 10 10l2 4 1 2q10-26-2-51l1 2q5 13 2 27l1 5q1 4-2 7l-1-3-3-16-4-15-4-16h2v2h2q7 3 11 11l3 10q1-10-2-22v-8l-3-12z"/><path fill="#f5c9a7" d="M169 477q12 9 15 23v3l6 31 12 74 4 26 1 3-1 7q-6 6-16 5c-14-2-27-13-37-23l-3-3c-28-29-48-72-48-114q-1-19 12-34c16-15 39-10 55 2"/><path fill="#0e0e0e" d="M432 446q12 10 14 26v7q0 3-2 5-4 2-8 1-5-4-8-11-9-18-28-25-7-3-14 0l3 3q12 18 9 40-3 17-17 26-15 8-31 4a42 42 0 0 1-17-9l-2-2q-12-12-13-29-1-14 5-26-15 10-25 27-3 7-7 7-5 0-9-4c-2-7 3-13 6-19q21-29 56-36l8-2c27-4 58-2 80 17"/><path fill="#0e0d0d" d="M628 433h5q26-2 46 14 15 13 18 33l-2 7-7 2q-9-4-13-14-11-19-32-26h-15l1 1q15 17 12 39 0 16-13 27-12 10-28 8l-13-4-3-2q-15-10-19-30l1-19-3 2-4 1-2 2-8 2q2-15 15-24c18-14 42-19 64-19"/><path fill="#aba9a6" d="M660 62q7 4 10 10l2 3 3 4 3 5c12 19 23 45 20 67l-3 7h-2v3l5-5 2-2q6-6 11-16l7-9 1 4v10h-1v2c-2 18-10 40-23 52l-7 4-2-1-1 1-6 1h-5l6-4 11-9-5 3-3 2-5 4-7 4-9 4-3 2-2-1 2-2 4-2 3-2 8-7 5-5 3-2 2-2-8 4q-6 6-15 9l-2 2-12 4q2-10 9-19l1-20v2q-5 20-21 33l-8 3 7-13 5-6 3-5q5-9 4-19v-27q7 3 10 10l2 4 1 2q10-26-2-51l1 2q5 13 2 27l1 5q1 4-2 7l-1-3-3-16-4-15-4-16h2v2h2q7 3 11 11l3 10q1-10-2-22v-8l-3-12z"/><path fill="#494441" d="m229 202 2 1 10 2 9 2q9 1 17 7l-2 1q-26 5-47 20l-4 2-1 2-3 5 14-5q18-5 35-5l-1 5-2 1-24 9h3q-5 17-13 32l2-2q4-4 10-6l6-3 11-4v2h-2v2q-1 4-6 7h-2l1 3-2 4-2 2-1 1h-3l-1 2-2 3-5 8-2 3-8 14 2-1 2-2 2-2 7-2-4 10 2 1-1 2-6 9-8 7-10 9q-3 3-7 3 5-11 13-21l-18 11 2-7 2-3 2-2 1-3 5-8 2-3q12-15 26-26l-3 1v-2l4-3 1-1 2-1-7 4-2 1-9 8-5 6-4 4-1 2h-2l2-11-4 2-15 8v2l-3 3-2 1-2 2-2 1q-5 5-11 6l13-16 4-5h2l1-2 4-7-2 1-10 6 6-10 2-2 13-15q5-7 8-15l4-8 1-2-29 18-1-3 5-7 1-1 12-14 4-5q11-10 26-15l3-2 2-1 3-3-4-1 3-3-15 6q-4 2-10 3t-11 3l4 1h8q-3 4-8 5l-3 2-3 1-3 2-21 9-12 7-2 1-2-1 2-2 2-3 3-2 4-5q11-14 28-20l12-6 3-2q4-2 4-5v-2z"/><path fill="#adaba7" d="M393 21q30 7 58 19l24 10 3 1 6 2-2-1-2-2-2-2-4-4-4-3-4-6q9 2 16 7l3 1 14 10 6 3 3 2 7 2q21 7 38 21v2l2 1 8 6 2 2c5 4 5 4 5 8h2q9-1 16 3l3 1 6 6 4 6q11 15 16 32l-1 3-1-2-14-20-2-2-10-9-5-4-8-7-2-2-8-7-4-3-2-2-5-4a70 70 0 0 0-22-12l-5-2-3-1-5-3-6-1-9-3-15-6 9 5-4 1 14 9q21 13 37 29l-3 1v-2l-6-3-12-6-1-1-5-4v-2l-2-1-9-4v-2l-5 1 2 1 5 5q-9 1-17-4-6-2-13-2l23 13-2-2-4-5q7 3 13 8l16 15 9 9 8 9q3 2 3 6l-1 2h-2l-3-3q-9-14-24-22l-5-4-16-9 8 9q-3 0-7-3l-16-9-10-5-10-6v-2h-2l-7-3-18-7-2-1h-2l-5-3v-4l23 4 3 1 3 1h5l-2-1-6-4-3-1-2-1-2-2-5-5 13 5-1-2 17 6-2 2q9 6 19 5h3l7 1-8-6h-3l-5-4-14-10-2-1q-15-10-32-15l-15-5-2-1-12-6 5 6-1 2-2-2-3-3-3-3-4-3z"/><path fill="#2d2927" d="m250 300 1 4-4 7-1 1-5 9q-4 6-6 13l4-4 3 1 1-2q1-3 6-4l3-1 5-1v3l-1 4v2l1 8 2 1v2h3l-2 3-3 4-2 2q-4 6-6 11l4-1v7l-3 1-7 8-2 2h-2l-1 2c-4 11-16 18-25 24h-2l-1 3-4 6h-7l-1 2-4 6h-2v-17l-3 3q-2 4-6 5v-2h2l-1-2q0-5 3-9l-1-1-7 5-7 5-2-1 3-4 1-3 14-13 5-5q5-3 6-9l1-3 5-15q2-5 6-11v8q8-9 12-22l3-6 1-7 11-10 3-3z"/><path fill="#0e0e0e" d="M352 386h28c59-1 59-1 80 13l3 2 4 4v11l-1 5-16-2-4-1h-2q-48-10-98-9h-3l-47 3c4-10 18-15 27-19q14-6 29-7"/><path fill="#0f0f0f" d="M519 496q6 0 8 3l7 9 1 2 9 20 16 32 8 16 2 2q6 14 2 27l-3 5-1 2a81 81 0 0 1-51 22c-18 1-38 0-52-12l-2-2 1-7 19 2c21 3 43 3 61-8l2-1q5-3 5-8c3-14-4-27-10-40l-18-41c-7-17-7-17-5-22z"/><path fill="#100f0f" d="M400 637q0 12-7 22l-6 7v4c6 12 20 15 33 19l34 6h2l33 3h4c26 1 52 1 76-12q7-4 15-3 2 2 2 5 0 5-4 8l-7 5-3 1c-45 24-115 11-163-3l-19-7-3-1q-11-4-17-14c-1-12 11-26 17-35q5-6 13-5"/><path fill="#acaba7" d="m720 206 2 1-5 4h4l18-1 2 2 5 2a56 56 0 0 1 27 20l1 2-1 2-21-10 5 4c11 11 19 28 24 43l1 3c2 6 2 6 1 9l-2-1-14-10-8-6-5-1-2-3 7 11 8 15 1 2c9 20 9 20 7 25l-1-2q-3-8-10-13h-2c7 23 7 23 12 33q3 7 2 14l-2-1v-4l-2-1-5-5-5-5 1 3 4 14 2 9-9-12-1-3q-6-10-7-21l-3-8-4-1q-12-2-19-11v-2l4 1 19 6-1-4 2-1-1-1-9-10-6-5-4-4v-2l-6-7-1-3q5-1 9 2l4 3 7 5 6 5q9 6 16 14c-10-22-10-22-17-27l-5-10-3-5-1-3 1-2-2-1 3-1v-2l8 5 2 1q3 0 5 3l-4-6-1-2q-3-5-10-8l-3-3-2-3h-4l-4-4-4-5-3-2v-3q6 0 11 5l11 5q-2-7-8-12l1-1q-13-5-28-7 4-5 9-5v-2z"/><path fill="#494441" d="M564 29c12 3 22 13 31 20l3 2c21 17 43 42 47 70v9q-3-1-4-6l-1-3-1-2 2 10 1 13-2-3-3-4-10-13-1-2h-1l1 7 1 6h2l3 6 2 4 3 8h-2l1 4 1 9q-5-9-4-20h-2l-3-3-1-1-1-3-1-2-1-2-4-10v4l-1 2h-2l-1-6-1 4h-2l-5-5 1-1-2-1a70 70 0 0 1-23-44v-3l-1-2 2-1q-7-18-18-33z"/><path fill="#4a4541" d="m313 39 23 3 3 1 33 7 10 2 22 7 11 3 10 2-1 5 2 1-10-3-15-4-11-2q4 5 10 7l4 5 5 1v2l-8-1q1 5 7 7h-4l-3-1q-22-7-45-6h-3l-13 1-5-1v2h2l7 2 3 1 2 2 3 1 18 11h-5l-2-1-5-1-3-1h-3l-6-2h-3l-13-3-12-3 6 2-2 2 11 4v2l-8-2 4 2v2l-27-2h-2l-11-2v-2l20-3-3-3-2-1-7-2v-2l-24-6v-4h4q39 2 77-1c-4-7-4-7-8-9l-4-2v-2l-2-1-14-7-13-6z"/><path fill="#443230" d="m310 139 3 1 8 3v1h-3l-24 3-8 1 18 5q19 5 38 12l3 1 29 14v1h-2l-28 1q-15 1-27-8-3-2-8-2v3h-9l-3-1h-10l-12-2h-34l-22 1-6-2h2l10-3 10-3 11-2 15-4q9-2 20-2v-3l-2-1h-3l-2-1-6-3q-7-3-14-4l-3-1-7-1q4-2 9-2l16-3q21-6 41 1"/><path fill="#0e0e0e" d="M523 727h2c6 0 6 0 9 2q6 8 6 17l-2 4-11-3v2l1 7v3l-1 4q-4 3-9 1l-10-6-2-1v8l-2 6h-8l-5-5-1 3-5 3q-6-1-9-6l-2-6h-2l-1 2-3 4h-6q-5-5-5-13-1-10 4-18l1-2q3-4 7-5l7 3 3 2 6-3c6-1 6-1 9 1l1 2 5 2 8-4q6-5 15-4"/><path fill="#2a2725" d="M737 319h2l1 7 1 3 2 1q4 2 7 7l2 1 4 9 3 1 2 7 1 2 1 9 4 28h-2l-1-3-2-3-2-3-7-11 2 9v3q1 7 6 12l4 16 1 8-4-4-2 2-3-2 1 3 1 6q-5-3-9-8l-1-2-6-14q-4-8-13-14l-3-3v-2h-2l-1-4q-1-12-5-23l-1-5 3 1 7 2-1-2-3-6-1-3-1-2-1-2-1-2 1-2 3 2v-3l-2-1h3l-1-4 14 7v-2l-1-10v-3z"/><path fill="#494440" d="m489 60 19 7 7 2 9 4 4 1q18 5 31 18l16 12-3 1 2 4 6 11 1 2 7 16 1 2q3 10 2 19v10l-2 1-1-4-7-21-2-7q-6-13-16-23 5 13 14 23l2 6h-2l-3-3-11-11-2-2-11-6-4-3q-8-6-17-10l-3 1h-2l-4-4-12-10-1-1v-2h-2l-6-3 2 1 2 2v2q-13-5-25-13 9-2 18 3 6 3 13 2l-6-5 1-2 4 1v2h2l9 5v2l2 1 11 7 6 3q3 1 5 4l1-1a219 219 0 0 0-34-27l-16-10 4-1-2-1-2-1-2-1z"/><path fill="#4c4743" d="m310 127 24 7v1l-6 1q5 4 9 5l3 1 11 4 3 2a127 127 0 0 0 32 8l7 1-3-1-24-9-16-6v-2h3v-2h9l-23-3v-1q25-7 46 4l10 3-9-9h3v-2l9 3 12 5q11 2 18 10l2 1 2-1 6 3-1 2v2l2 2q2 2 2 6v3q-5 2-10-1l-4-2-3-1-5-2-4-2-3 1-5-1-2-1-2-1-1 2-5 3h3q24 6 41 24-3 1-7-2-6-4-15-7l-3-1-43-11q8 11 18 18l11 10-11-5v-2l-2-1-9-6-2-2-11-8q-22-16-45-31l-8-6-3-1-1-1z"/><path fill="#f4c9a7" d="M760 475q5 3 7 8c8 30-4 67-14 95l-1 3-13 29h-2l3-48 3-43v-4l1-16v-8q1-9 6-14 5-4 10-2"/><path fill="#edb99e" d="M453 442a34 34 0 0 1 10 24v7l-1 14-3 1v-3q1-13-9-22l-2 2 1 5v9h-1v-2l-4-16h-2l-3-5q-15-20-38-25c-28-6-63-3-88 12a79 79 0 0 0-30 36h-2l-1 2-1-4-1-7-1-2v-2l-2-4-1-8v-6l8-2q7-2 14-7c41-26 117-24 157 3"/><path fill="#0f0f0f" d="M148 493q26 19 33 51v7l-7-5q-3-2-7-3l-6 3q-6 8-4 16l8 18v7h-10q-11-7-14-19l-1-2q-3-15 6-29l4-5 1-2 2-2 1-4q-7-14-22-21-6-3-13-3l-5-2q0-4 3-6 16-9 31 1"/><path fill="#dddbd4" d="M648 89h2v2h2q7 3 11 11l3 10 1-15q5 5 7 12l10 20c6 13 3 26 0 39h-2l-1 2-2-1-2 4v-2l-2-5-1 5h-1l-2-14-3 1v2q-3 14-10 26l-2-1 1-4v-16 2q-5 20-21 33l-8 3 7-13 5-6 3-5q5-9 4-19v-27q7 3 10 10l2 4 1 2q10-26-2-51l1 2q5 13 2 27l1 5q1 4-2 7l-1-3-3-16-4-15z"/><path fill="#4b4743" d="M207 266q0 5-3 9l-2 4-2 3-2 3-2 4-2 4 5-6h2l1-2q1-4 6-6l2 1q5 0 9-5l3-2 2-1 2 1-4 8 2-2q4-4 10-6l6-3 11-4v2h-2v2q-1 4-6 7h-2l1 3-2 4-2 2-1 1h-3l-1 2-2 3-5 8-2 3-8 14 2-1 2-2 2-2 7-2-4 10 2 1-1 2-6 9-8 7-10 9q-3 3-7 3 5-11 13-21l-18 11 2-7 2-3 2-2 1-3 5-8 2-3q12-15 26-26l-3 1v-2l4-3 1-1 2-1-7 4-2 1-9 8-5 6-4 4-1 2h-2l2-11-4 2-15 8v2l-3 3-2 1-2 2-2 1q-5 5-11 6l13-16 4-5h2l1-2 4-7-2 1-10 6c5-12 17-27 28-33"/><path fill="#7d7b78" d="M393 21q30 7 58 19l24 10 3 1 6 2-2-1-2-2-2-2-4-4-4-3-4-6q9 2 16 7l3 1 14 10 6 3 3 2 7 2q21 7 38 21v2l2 1 8 6 2 2c5 4 5 4 5 8h2q9-1 16 3l3 1 6 6 4 6q11 15 16 32l-1 3-1-2-14-20-2-2-10-9-5-4-8-7-2-2-8-7-4-3-2-2-5-4a70 70 0 0 0-22-12l-5-2-3-1-5-3-6-1-9-3-15-6 9 5-5 1-5-3h-5l1 1 1 4-8-5q-22-18-48-26l-14-5-3-1-12-6 5 6-1 2-2-2-3-3-3-3-4-3z"/><path fill="#ecb095" d="m682 430 2 1 8 6 3 3q5 4 5 11h2l5 11 1-4 4-8h2v2h2v-5h2l4 10 2 3 1 8v3q1 26-8 51h-1l-1-45-7-3-2-5-1 6-3 1-3 1-1 3-1-3-1-4-1-2-6-11-3-4q-15-18-39-22v-2l-13-1 2-3 6-1h12c22 0 22 0 28 3"/><path fill="#aba9a6" d="m393 106 3 1q16 4 28 14l9 6q14 8 24 18l6 6 1 1 4 4v2l2 1 7 8 1 2 4 10 4 5-2 1-1-1-12-13-15-17q-7-8-15-14l-2-1v-2l-2-1q-6-2-10-6l-5-1 2 1 2 2v2l2 1q3 1 5 6l1 2 1 2h-2v-2l-2-1-10-6-6-3-2-1-19-7-25-7-21-7-2-1h-2l-4-3h3l15-3q18-3 35 2"/><path fill="#aba9a5" d="m250 300 1 4-4 7-1 1-5 9-6 12q0 3-4 5h-3v4l4-3v3l1-2 2 1q6-2 11-7l2-1 4-3q0 5-4 8-5 6-8 13l-4 7-3 8q-5 13-17 21l-3 1c1-12 9-21 16-30q3-4 3-7l-2 2-5 7-10 11-20 22v-5l1-3-2 2-3 2-2 3q-4 3-7 3l14-12 3-8 2-5 4-13q2-6 6-11v8q8-9 12-22l3-6 1-7 11-10 3-3z"/><path fill="#40312f" d="M381 121q29 5 52 22c-4-7-4-7-7-9v-2l-4-2v-3l17 10v2l2 1q10 5 16 15l13 14 2 2 1 1 7 10 4 8q3 3 3 8-16-7-31-19-8-7-18-12l2-2v-7l-4-4 1-3-5-2h-3l-6-5v-2h-2q-15-4-27-11l-4-1 2 2h-4l-3-1-4-2 2-1h-6v-2l-3-3 2 1h5z"/><path fill="#4b4643" d="m350 194 11 3v2h6l1 2-27-3-28-4v4l2 1 15 5-1 2-24-3-35-4-9-1-6-1h-3l-19-1v-2h49l-9-1h-10l-6-1h-4q-7 1-11-5c37-13 72-5 108 7"/><path fill="#3d2f2d" d="M328 416h22q27-1 53 2h3l20 3h3l5 1h9l18 2 10 2a162 162 0 0 0 76 2h4c-18 12-48 8-68 4l-7-2-11-2-3-1-21-2 2 1 9 2 3 1q10 2 15 9 13 29 4 59l-1 2q-3 15-10 29l-1 3c-6 11-6 11-12 13l-4 4-7 6-2-1 2-1 12-11 2-1 3-6 1-3 4-11 1-2 7-15q3-13 2-27v-3q1-20-10-36-9-5-19-7l-3-1c-46-13-104-15-148 3l-4 3-2-1q17-13 38-15l-2-2z"/><path fill="#101010" d="M586 644c10 1 17 12 23 20l-1-12q6-2 10 1 12 11 15 26v6h-6l2 3 2 5 1 2q4 5 1 12l-2 2q-7 1-12-5l-11-16-13-19q-6-9-10-21z"/><path fill="#111010" d="M379 640q0 11-7 21l-2 4c-7 12-15 27-27 35h-5l-2-2q0-8 5-15l1-3 2-5-3 1-8 1q0-15 11-26 5-6 13-8l2 1-1 12 1-2c12-16 12-16 20-14"/><path fill="#4a4541" d="m401 26 9 4 24 8a132 132 0 0 1 40 22l5 4 1 1c5 3 5 3 8 3q7 3 7 7c-23-1-23-1-31-7l1-2-14-5 1 2-13-5 22 14q-5 1-11-1l-5-1-2-1-5-1q-9-3-13-12l-7-7q-11-10-17-23"/><path fill="#4d4844" d="m447 94 19 3 8 2 13 5 2 1q10 5 17 14l2 2 4 6-12-7q-4-3-10-4v1l-8 1q9 8 19 13 32 14 48 45l1 5-6-7-6-9-2-1q-9-10-21-18l-8-5-5-3 2 3q5 8 9 17l2 4q5 10 7 22l1 3c2 8 2 8 1 10l-2-5h-2l-1-4-1-3-2-5-2-6-3-9c-6-22-28-41-45-54l-10-7-2-2c-6-4-6-4-7-8"/><path fill="#494440" d="M726 104c13 13 14 44 15 61q0 17-9 31l2 1-9 12 1 2-10 1 4-5h-3v2h-7l3-4h2l1-2 4-5a79 79 0 0 0 13-22l5-10-7 6q-7 10-16 15l-4-1 1-2 1-2 1-2q3-7 3-16v-9l-1-6 1-8h1l1-8h1v16l2-4q3 6 2 11v7l1-12v-10l1-18z"/><path fill="#817f7c" d="M723 273q5-1 9 2l4 3 7 5 6 5q8 4 15 13l1 1h2l-1-2-1-2-2-3-2-7h2l2 7h3l4 10 1 3 2 6v5l-1-2q-3-8-10-13h-2c7 23 7 23 12 33q3 7 2 14l-2-1v-4l-2-1-5-5-5-5 1 3 4 14 2 9-9-12-1-3q-6-10-7-21l-3-8-4-1q-12-2-19-11v-2l4 1 19 6-1-4 2-1-1-1-9-10-6-5-4-4v-2l-6-7z"/><path fill="#e9e9d2" d="M677 429c13-1 29 2 39 10 11 12 10 29 10 44 0 22-4 49-20 65-19 16-47 17-70 17h-3c-23 0-43-2-61-18-12-12-17-31-21-47v-2l-2-18h1v2q4 27 16 52l1 4h2q3 2 5 5l3 1 5 5 2 1v2h2l9 3 10 3 3 1q17 4 33 3h2q10 1 19-2h6q9-1 16-5l4-1q18-8 27-27c7-20 14-49 7-69l-2-2-1-5-1-4h-2v5h-2v-2h-2l-3 11-1 3v2l-4-9-1-2-1-4h-2l-1-2q-4-13-16-18l-6-1z"/><path fill="#7d7b79" d="m663 67 5 5v2q0 5 3 7l3 6 3 1q4 7 3 15l-3-2 3 8 1 2 5 9 2 7v5l-1 1 2 8c3 14 3 14 1 20l-3 2-1 7-2 3v5l2 2 2-1-2 5-6 2-4 3q-6 6-15 9l-2 2-12 4q1-9 7-16l1-2h3l1-4 1-2 2-6 6-16h2l1-3 2 8h2l2 9 2-3 5-1q6-27-7-51l-6-14-3-5-2 1-1-17h2l-1-4z"/><path fill="#2c2826" d="m150 325 2 1-3 15q9-3 12-11l1-3h2l-2 11-1 3-2 8-1 3-1 3 1 7 3-3 2-1 5-5-2 7-1 2q-4 13-12 24l-3 6v-8a45 45 0 0 0 0-21v2l-8 18-1 2-1 3-1 2-3 3q-1-9 3-18l1-8-12 22-3 5-2-1 5-22q3-5 1-9 0-7 5-12l3-5q5-11 13-20"/><path fill="#48433f" d="M251 92h7q14 0 27 2v1l-14 1h-13q13 6 26 8 17 2 33 8l6 3q12 3 22 9l-2 1-6-2-10-3h-3l-5-2-7-1-25-5-13-3-1 1-7 1-4 1h-3l8 2v1l-8 1 21 7 9 4c-9 3-20-2-28-5l-14-3-5-3-4-1-10-4 2-1 3-2 5-1h3l4-1 6-1 3-1 6-1q-17-6-36-8l-5-2z"/><path fill="#4b4542" d="m310 139 3 1 8 3v1h-3l-24 3-8 1 18 5q19 5 38 12l3 1 29 14v1h-18l-8-1v-1l7-1 1-3-2-1-11-3h-2l-20-6-22-6q-6 0-10-4l-6-1q-6 0-13-4-12-6-26-7 4-3 9-2l16-3q21-6 41 1"/><path fill="#47413e" d="M251 234h8l-1 5-2 1-24 9h3l-3 9-1 3c-4 11-9 15-18 20l-4 1-1-2-3 2-2 2-2 3h-2l-1 2-1 3-3 1 7-14 2-4 1-2 2-5-2 1 4-12 2-4c5-10 5-10 9-13l4-1 3-1q13-4 25-4"/><path fill="#ebb69b" d="M386 424h11l8 1 2 1c40 7 40 7 51 21l1 2 1 3q4 9 3 19v2l-1 14-3 1v-3q1-13-9-22l-2 2 1 5v9h-1v-2l-4-16h-2l-3-5q-15-20-38-25l-3-1-6-2-4-1h-8l-6-1q5-3 12-2"/><path fill="#b3b1ae" d="m389 129 9 3 12 5q11 2 18 10l2 1 2-1 6 3-1 2v2l2 2q2 2 2 6v3q-5 2-10-1l-4-2-3-1-5-2-4-2-3 1-5-2-2-1-3-1-3-2-7-3v-3l-6-3-3-1q-16-7-31-7h-4l-9-1v-1q25-7 46 4l10 3-9-9h3z"/><path fill="#dad9d0" d="M475 18q12 2 22 9l6 3c28 14 28 14 40 23l2 1 6 5 2 2q17 10 24 28v2l-4-2-3-3-15-14-12-10 1 3h-3q0 4 3 7-9-2-16-11l-2-1v-2l-2-1q-10-6-18-15l-9-7-1-2-6-3-8-6-4-2v-2l-3-1z"/><path fill="#2d2a27" d="M257 323v3l-1 4v2l1 8 2 1v2h3l-2 3-3 4-2 2q-4 6-6 11l4-1v7l-3 1-7 8-7 3q-13 6-22 18 0-3 2-7l2-5-3 2 5-7q11-7 14-20 5-17 18-30l-10 6-2 1-6 4-1-1-3 2v-3l-3 2 1-5 5-3q4-2 6-5l3 1 1-2q1-3 6-4l3-1z"/><path fill="#a8a6a3" d="M746 226c13 4 19 16 25 27l10 22 1 3c2 6 2 6 1 9l-2-1-14-10-8-6-5-1-2-3 7 11c8 12 8 12 8 18h-2l-2-7h-2l5 10 1 3 1 2h-2l-9-15q-2-8-9-13l-5-10-3-5-1-3 1-2-2-1 3-1v-2l8 5 2 1q3 0 5 3l-1-5h6l3 4 1 2 5 10h2q-3-9-10-16l-7-11-4-7q-4-4-4-9z"/><path fill="#a6a4a1" d="M737 319h2l1 7 1 3 2 1q4 2 7 7l2 1 4 9 3 1 2 7 1 2 1 9 4 28h-2l-1-3-11-17 1 3 1 3v11-2h-2l-4-7-2-2q-7-11-10-24l3 1-1-2q-3-4-3-9l-2-4q8 4 12 13v2h2l4 5-1-2-1-5-2-5-1-3-3-1-3-5-2-2q-3-7-2-14z"/><path fill="#dedcd3" d="M647 133q7 3 10 10l2 4 1 2 2-2h1l1-5 3 2 1-8q3 3 3 8l3 11v16h-1l-2-14-3 1v2q-3 14-10 26l-2-1 1-4v-16 2q-5 20-21 33l-8 3 7-13 5-6 3-5q5-9 4-19z"/><path fill="#deddd3" d="M564 29c12 3 22 13 31 20l3 2c21 17 43 42 47 70v9q-3-1-4-6-9-22-25-40l-7-8-11-14-1-2c-14-15-14-15-21-16l-2-1-1 3-4-7-2-2z"/><path fill="#2e2a28" d="m207 329 2 1-2 3-3 4-1 2-7 11 7-1 4-4-7 14 2 1-2 7h-2l-3 4-9 11-3 4h-2q1-7 6-13l1-3-3 2-4 1a30 30 0 0 0-14 9l-7 4q4-12 13-22l4-4 1-2 5-6h-3l1-2 2-2 2-3 4-5 4-2z"/><path fill="#494441" d="M361 79q25 3 50 10l4 1q21 5 38 18l7 5 3 2v2l-9-3-2-1-3-1-5-2-8-3c-21-9-21-9-32-7v2l-3 1 1 2h-6l-3-3q-5-5-12-9l-2-1-4-3-9-6-3-2-2-1z"/><path fill="#484340" d="m570 55 10 11 3 4q2 3 3 7l-1 2 2 5 3 11 7 14-2 1-1-2q-1-3-6-4l-4-2q-5-2-12-2-2 1-4-3l-2-3-6-5-3-3-4-3v-2l-2-1-7-5-5-3 4-1-5-5 2-1 1-2-1-1 3-1 2 2 30 26v2h2l-1-2-1-5-3-20z"/><path fill="#2b2725" d="m623 117 10 11 8 11 1-6h1l1 13h2v12l1 4q1 15-9 26l-3 4-2 3-2-1-3 5-1-8 1-22v-14l3 3 1 3v2l1 2-1-7v-2l-3-10 1-3 3 1 2 14v-4l1-4-7-15v-2h-2l-3-9z"/><path fill="#989693" d="M508 59q16 3 30 11l2 2q7 3 13 9v2l2 1 8 6 2 2c5 4 5 4 5 8h2q9-1 16 3l3 1 6 6 4 6q11 15 16 32l-1 3-1-2-14-20-2-2-10-9-5-4-8-7-2-2-8-7-4-3-2-2-5-4a70 70 0 0 0-22-12q-15-4-25-15z"/><path fill="#40302e" d="m259 474 3 1 2 6 2-3v2q1 31 16 58l2 3q10 15 29 20 27 5 52 4h13l8-1h4l12-2h9l1-2 5-2h3l8-2q-2 5-7 6l-9 2-4 1q-14 3-30 3h-21c-21 0-42 0-61-10l-2-1q-11-6-17-18l-1-2c-18-38-18-38-18-52v-3z"/><path fill="#494340" d="M232 149v3q-21 9-43 12l-4 2 9 4v1h-2q-29 3-56 14l-2 1-2-1 2-1 3-3 2-1 10-6 13-9 2-1q18-10 37-12l7-1z"/><path fill="#a7a5a2" d="m229 290 2 1-7 12-2 2-6 12 2-1 2-2 2-2 7-2-4 10 2 1-1 2-6 9-8 7-10 9q-3 3-7 3 5-11 13-21l-18 11 2-7 2-3 2-2 1-3 5-8 2-3q10-15 25-25"/><path fill="#392e2c" d="M605 424h4l-1 2-5 1-4 1h-3c-18 4-34 8-46 22l-5 11-1 2c-6 20 3 46 13 63 7 14 7 14 12 19l2 3c8 10 23 15 36 17l4 1 29 1h6l21-3h9v1l-10 2h-2l-3 1-2 1-20 1h-11q-29 2-53-13l-2-1q-9-10-16-21l-1-2q-12-21-16-45l-1-3q-5-15 3-29c8-11 8-11 12-12l1-3q22-17 50-17"/><path fill="#141313" d="M270 502h1l1 3c4 18 10 37 26 47 31 17 79 15 112 6q25-8 37-32 7-11 10-23h3l-1 8 2-5c3 7-4 16-7 22l-1 2q-4 9-12 16l-2 2q-7 8-19 11l-2 1-18 4-5 1h-13l-20 1h-2c-22 0-48 0-66-13l-2-1c-13-11-20-29-23-45z"/><path fill="#4c4743" d="m313 39 23 3 3 1 33 7 10 2 22 7 11 3 10 2-1 5 2 1-10-3-15-4-11-2q4 5 10 7l4 5 5 1v2q-11-1-21-9l-5-3-3-2v-2l-3-1-6-3q-7-2-14-1l-9-2 2 3q-11 0-19-7c-12-8-12-8-18-9z"/><path fill="#b1afac" d="M368 109q8 3 18 4c12 1 31 4 40 14l5 3-2 1-7-3 2 2 2 4 2 1q3 1 5 6l1 2 1 2h-2v-2l-2-1-10-6-6-3-2-1-19-7-25-7-21-7-2-1h-2l-4-3q14-3 28 2"/><path fill="#494541" d="M239 208c20 0 20 0 28 5q-2 3-6 3l-3 1-6 2-24 10-2 1-8 5-4 2-1 2-3 5h5q-2 4-6 5l-25 16-1-3 5-7 1-1 12-14 4-5q11-10 26-15l3-2 2-1 3-3-4-1 3-2z"/><path fill="#36312e" d="m221 431 2 2-4 1v10h1v-8l4-1v10l2 1q-2 4-8 5l-3 1-3 1-7 2q-18 7-37 12l1-4 7-5 1-1q7-4 14-4l-1-3 3-2 2-2 6-3-9 4-10 3 2-4q13-9 28-11z"/><path fill="#443230" d="M716 447h2l4 10 2 3 1 8v3q1 26-8 51h-1l-1-45-7-3q-2-9 1-18l3-6h2v2h2z"/><path fill="#b4b2ae" d="M483 63q8 0 14 5l5 3 2 2 8 4q18 12 34 28l-3 1v-2l-6-3-12-6-1-1-5-4v-2l-2-1-9-4v-2l-5 1 2 1 5 5q-9 1-17-4l-9-2q-10-1-17-8l8 2v-2h-4l-3-1h-2l-1-2h3l16 2 10 1-9-8-2-1z"/><path fill="#494440" d="m593 121 6 4 1 6 2 4q10 38-8 72l-3-4q-3-13 1-24l2-6v-3q3-14 2-29v-14h-2z"/><path fill="#e0dfd1" d="M761 438q3 2 3 8l-1 2v2q0 6-2 7v-6l-1-3-1-8-4-1-12-4-10-4q-19-7-38-9l-7-1q-22-3-46-3h-2q-42 0-82 10l-7-1q22-6 45-10l2-1c51-7 118-5 163 22"/><path fill="#ecead2" d="M677 429c13-1 29 2 39 10 11 12 10 29 10 44a157 157 0 0 1-5 37h-2l-2 2v-2l4-19 1-2q4-20 0-41l-2-2-1-5-1-4h-2v5h-2v-2h-2l-3 11-1 3v2l-5-11-1-4h-2l-1-2q-4-13-16-18l-6-1z"/><path fill="#494441" d="m210 189-8 4q-16 4-26 18-10 9-24 12a66 66 0 0 1 44-34h-2l-14 2h-4l-3 1h-9c10-16 32-8 46-3"/><path fill="#dedecb" d="m566 401 2 1-1 1-5 13q0 6-4 6l-7 2-6 2q-35 6-72-2l-66-9h-4l-54-3h-2l-50 1v-1l49-4h2q60-1 118 13l1-16q2 4 2 10l-1 3v3a196 196 0 0 0 90-1q4-6 4-13z"/><path fill="#4a4541" d="M705 232a32 32 0 0 1 22 6l7 8 2 3 4 8 2 4 3 8 4 5c7 7 16 20 16 29l-2-2-9-9q-3-2-4-5l-2-1q-2-3-1-7h-2l-3-4-4-4q-5-5-7-11l-9-12-2-4-4-2v-3h-4l-4-4-2-2z"/><path fill="#111010" d="M529 642q8 4 10 14c7 15 7 15 6 23l-3 3q-7 1-12-4-8-11-8-26c0-4 2-10 7-10"/><path fill="#dcdbd2" d="m726 303 9 3 2 1q9 3 15 9h3l4 3 4 1 2 2 3 1 2 4 1 2 1 2 1 3q3 8 3 17l-2-1v-4l-2-1-5-5-5-5 1 3 4 14 1 3 1 6-9-12-1-3q-6-10-7-21l-3-8-4-2q-12-1-19-10z"/><path fill="#10100f" d="m463 638 4 2q-1 21-16 35l-5 3-5-3q-3-8 1-15c12-22 12-22 21-22"/><path fill="#d8d7cf" d="M574 46h2l1 2 2 1 6 5 2 1c13 11 24 31 28 47l-1 6-2-3-7-8-3-4q-3-5-7-5l-3-3-1-3-7-15-3-5-4-9-2-3z"/><path fill="#e6dfc8" d="m270 459 1 8c-1 27 1 58 21 79q7 7 17 8l9 1q25 5 50 4h6l3 1q12 1 23-1l2-1 11-3h7q-17 7-35 8h-4q-37 4-72-5l-3-1q-9-3-16-10l-2-1c-16-18-20-48-20-71v-3q-1-6 2-13"/><path fill="#acaaa6" d="M252 330q0 5-4 8-5 6-8 13l-4 7-3 8q-5 13-17 21l-3 1c1-12 9-21 16-30q3-4 3-7l-2 1-2 2-3 2-6 4-3-1 14-15 3-4 2 1q6-2 11-7l2-1z"/><path fill="#332c2a" d="m725 370 10 13 2 3 8 17q1 4 6 6v2l3-2v-3h-2l-2-3-4-4h-2l-1-4 1-1-1-1q-2-3-2-7l5 7q1 3 5 4l2 1v6h2l-5-12-1-2 1-3 2 3 2 3h3c6 6 6 13 8 21l1 8-4-4-2 2-3-2 1 3 1 6q-5-3-9-8l-1-2-6-14q-4-8-13-14l-3-3v-2l-2-1h2l-1-4z"/><path fill="#494440" d="m151 258-2 7-2 2-1 2 2-1 16-8-13 13-4 3-5 5q-5 4-8 10l-2 3-16 30h-1l3-13 1-3 1-3 1-3 4-11 2-4c4-11 10-23 22-28z"/><path fill="#48433f" d="M211 116q16 0 31 5v1h-21l-32 3 12 2v2l-4 1 2 1 18 5v2l-20-2q-15-3-30-4v-2c27-13 27-13 44-14"/><path fill="#2b2826" d="M279 153h7l8 4q6 3 13 3l32 9 15 4 2 1v5q-10 4-22 3l-12-5-1-2 8 1-2-1-11-7q-9-5-19-6h-3l-7-1v-2h-2l-4-2v-3z"/><path fill="#0e0e0e" d="m444 638 1 4q-4 17-17 29-4 3-9 2-2-3-1-6c0-11 8-19 15-26q5-4 11-3"/><path fill="#e5c8b0" d="M665 427v1h-3l-20 1h-3l-4 1 12 2v1h-3q-24-1-48 5l-3 1q-26 7-41 28l-2 5v2l-1 2h-1a37 37 0 0 1 10-26c28-25 72-24 107-23"/><path fill="#534f4c" d="m663 67 5 5v2q0 5 3 7l3 6 3 1q4 7 3 15l-3-2 3 8 1 2 5 9 2 7v5l-1 1 2 8c3 14 3 14 1 20l-3 2-1 4-2 1v-3q6-26-7-48l-6-14-3-5-2 1-1-17h2l-1-4z"/><path fill="#dbdad1" d="M660 62q7 4 10 10l2 3 3 4 3 5q19 28 19 62l-3 1-1-3q-2-14-9-26l-6-11-1-3-1-3 1-2 2 3q1-7-3-14l-3-3q-6-6-7-15h-1v3l2 9h-2l1 9-2-6-3-15z"/><path fill="#111110" d="M545 642q5 0 9 2c6 7 16 20 15 30q1 5-2 6-7 0-11-5-7-8-10-18l-1-2z"/><path fill="#7c7a78" d="M207 266q0 5-3 9l-2 4-2 3-2 3-2 4-2 4 2-1 10-4q0 7-5 11-6 6-14 8v2l-3 3-2 1-2 2-2 1q-5 5-11 6l13-16 4-5h2l1-2 4-7-2 1-10 6c5-12 17-27 28-33"/><path fill="#111010" d="M503 642q3-1 5 2 4 6 5 13l1 2q3 8 2 16l-4 4h-6q-8-6-8-17-1-10 2-19z"/><path fill="#7d7b79" d="m228 344 2 1-2 2q-6 5-11 12l11-5q-2 6-5 8l-10 12-18 19v-5l1-3-2 2-3 2-2 3q-4 3-7 3l14-12 3-8 2-5 4-13q2-6 6-11v8l7 1 1-2 5-6 2-2z"/><path fill="#7b7977" d="m743 222 2 1q3 1 5 4h-3l1 2 2 4 7 11 5 8 4 6q5 6 6 13h-2l-3-5-2-3-3-5-1-2-6-1-1 2-1-2q-4-7-12-11l-3-3-2-3h-4l-4-4-4-5-3-2v-3q6 0 11 5l11 5q-2-7-8-12z"/><path fill="#dad8d0" d="M746 226c13 4 19 16 25 27 10 20 10 20 10 24l-1 2-2-4-2 3-2-2q-3-4-6-3v-2l-2-1q-7-4-11-12v-3h6l3 4 1 2 5 10h2q-3-9-10-16l-7-11-4-7q-4-4-4-9z"/><path fill="#141313" d="M555 520q3 1 5 4l2 4q9 24 33 32 18 5 38 4h7c19 0 48 0 63-15l1-1h2l1-2 4-3 3-3 1-3 3-3 1 3q-3 6-9 11l-2 2q-6 6-13 9l-4 2q-9 4-19 4l-8 1-23 2h-14l-22-2-6-2q-19-4-31-19v-2l-3-1-4-6-2-4-5-10z"/><path fill="#111" d="M485 639q4 2 5 6 1 15-8 26-3 4-7 5l-5-1q-1-16 6-29 3-6 9-7"/><path fill="#a7a5a2" d="M583 71h4c5 9 5 9 6 14l1 2 4 1 7 6 4 18 4 8 2 7h-2l-5-5 1-1-2-1a70 70 0 0 1-23-44v-3z"/><path fill="#403230" d="M363 136q16 2 30 10v2l10 5-1 5-6 2-6-4-6-2q-10-2-18-7l-16-6v-2h3v-2h7z"/><path fill="#262321" d="m486 30 13 10v2l3 1 2 3 1-1v-2h-2l1-2q6 2 8 6l12 10 2 1v2l2 1 5 4v2l2 1 4 3-10-4-13-5q-10-3-19-11l-2-2-14-17h3v2l7 2-2-1-3-2z"/><path fill="#504c49" d="m648 96 2 6h3v2l8 31-1-3 1-8q2-11-3-23l-1-2 1-2 4 8 2 4c5 14 0 31-3 45h-1l-1-2-6-15-3-2q-4-2-3-5v-17z"/><path fill="#56524f" d="m393 106 3 1q17 4 29 15v1q-5 1-11-2l-10-4h-3l-18-3q-12-2-23-7l-7-1c8-8 31-3 40 0"/><path fill="#101010" d="M419 638q3 2 2 6-3 13-14 23-4 3-10 2l-1-5q0-6 4-12l1-2c9-14 9-14 18-12"/><path fill="#d6d4cc" d="M737 319h2l1 7 1 3 2 1q4 2 7 7l2 1 4 9 3 1 2 7 1 2 1 9 4 28h-2l-3-6 1-3h1l-2-11v-3l-1-2-1-5-3 3-7-10-1-3-1-5-1-2-3-1-3-5-2-2q-3-7-2-14z"/><path fill="#101010" d="m718 352 13 6 1 3-4-1v-2h-2l1 7 7 6 8 11 7 7q6 7 6 15h-2l-1-6-2 1v-2l-3-1-3-5-1-2-1-2v6l3 1-1 3 1 2h3q5 4 4 7h2l1 5q-4 1-6-2l-9-15-8-13-1-2-5-7 1 11h-2l-1-3q-1-12-5-23z"/><path fill="#e7b198" d="M520 464q7 4 8 11 2 8 1 17l-5-9-2-3-2-6-4-1v-2l-7-1h-3q-9 0-14 5l-6 4-1-6q3-8 12-11 12-4 23 2"/><path fill="#111010" d="M567 645q6 0 8 4l13 17 1 2q4 6 3 11l-7 1q-8-6-14-16l-1-2q-4-7-4-16z"/><path fill="#494541" d="m139 235-6 9-2 3-2 2q5-2 9-5l2-2 10-7 2 1-3 5-1 2c-9 13-25 20-39 26h-2q9-16 23-29l2-1q4-5 7-4"/><path fill="#0f0f0f" d="M458 724q2 3 1 7 0 8-4 15l-1 2-4 4q-5 2-11-3l-1-8q4-17 20-17"/><path fill="#2c2826" d="m338 134 13 1 12 1-1 2-9-1v2h-3l2 1v2h2q7 1 12 4l5 2 2 1 22 8v1q-31-2-59-17l-9-4q3-6 11-3"/><path fill="#3f2f2d" d="m294 193 3 1h2l5 1h3l6-1v4l2 1 15 5-1 2-24-3-35-4-9-1-6-1h-3l-19-1v-2h41z"/><path fill="#e2b098" d="M240 455q6 3 8 8l1 7h-10l-9 1h-6l-5-1-1-11c16-7 16-7 22-4"/><path fill="#d7d6d0" d="m717 129 2 1v13h-1v2q-2 12-6 22l-1 3-8 17-1-2 4-9v-6l2-6q-4 5-6 11l-1-2h-2v-2l-3-1 2-3c9-12 9-12 10-20l-4 4 6-12 2-3z"/><path fill="#282524" d="M205 295q3 3 2 6l-1 3-1 2-1 2h2v-2l3 1-5 6h-2l-1 6h-3l-1-4-2 3-1 2-1 5-2 1q-6 3-10 8l-4 2 8-12 3-5 2-1 1-2 8-8 1-4-1 2-10 8-4 2-1 3-7 4-4-2q4-7 12-12h2v-2l4-3 3-2 7-4z"/><path fill="#47423f" d="M257 323v3l-1 4v2l1 8 2 1-3 1-1 5-4-1v2l-4 6-1 2-1 1-2-1 5-8-1 2-2 2-2 2-1 2h-2l-1 3q1-16 13-27l-10 6-2 1-6 4-1-1-3 2v-3l-3 2 1-5 5-3q4-2 6-5l3 1 1-2q1-3 6-4l3-1z"/><path fill="#797775" d="m389 129 9 3 12 5q11 2 18 10l2 1 2-1 6 3-1 2v2l2 2q2 2 2 6v3h-8l-2-1-2-1v-7l-2-1-6-4-2-1-5-5v-2h-2l-11-4-2-1q-5-1-9-6z"/><path fill="#4d4945" d="M740 168q1 15-8 28l2 1-9 12 1 2-10 1 4-5h-3v2h-7l3-4h2l1-2 4-5a80 80 0 0 0 13-22c4-8 4-8 7-8"/><path fill="#433431" d="M402 88q29 3 51 20l7 5 3 2v2l-9-3-2-1-3-1-5-2-22-8v-2l-10-4-11-6z"/><path fill="#4c4844" d="m503 80 5 1v2h2l9 5v2l2 1 7 4 2 2 2 1-1 4-8-3v1l-6 1-4-3-3-1-2-1-1-3-4-1-4-2 2 1 2 2v2q-13-5-25-13 9-2 18 3 6 3 13 2l-3-2-3-3z"/><path fill="#2d2927" d="M346 52h2l3 1 3 1h5q11-1 21 6v2l2 1 10 5 2 2 5 3v2h2l1 2q1 4 6 5h-5l-3-1-3-1-2-1v-2l-3-1-1-2-3-1-3-1-1-3-6-2-3-1-2-1-6-2q-10-4-20-4l-5-4h7z"/><path fill="#676361" d="M574 43q12 2 20 12l6 7 4 6 2 2 4 4c7 10 7 10 7 15l-1 3h-1l-2 6h-1l-1-4q-4-15-15-28l-2-2-9-9-3-3-6-4v-2h-2z"/><path fill="#382d2b" d="m561 536 10 12c8 10 23 15 36 17l4 1 29 1h6l21-3h9v1l-10 2h-2l-3 1-2 1-20 1h-11c-22 0-43-3-59-18q-7-6-8-14z"/><path fill="#a7a5a2" d="M668 136q3 3 3 8l3 11v16h-1l-2-14-3 1v2q-3 14-10 26l-2-1 1-4q1-10-1-20h2v-9l1-3 4-2 1-5 3 2z"/><path fill="#49433f" d="M498 132q17 3 30 16l2 2q9 8 14 17l1 2q4 5 5 12l-6-7-6-9-2-1q-9-10-21-18l-3-2-2-1-3-2-7-2-5-3z"/><path fill="#3b2e2c" d="m305 415-10 4h-2l-7 1-2 1-27 5q-7 1-12 5-3 5-1 10l4 4q5 4 5 11l1 4-5-5-2-2c-11-11-11-11-11-19q1-5 6-7l18-5 24-5z"/><path fill="#2c2826" d="m247 164 1 1h6l24 1v1l-8 1h2l15 1v1h-2l-20 1v1h-21l-25 1-6-2h2l10-3 12-4z"/><path fill="#2e2826" d="m511 77 2 1 9 2-2-1v-2q19 7 31 23l-1 2 2 2 1 2 2 2q3 2 2 5l-20-15q-11-10-24-19l-2-1z"/><path fill="#eab59a" d="m555 549 2 2 1 1 3 4q10 11 25 14l5 1 15 2h3l7 1 1 3c-33 1-33 1-46-6l-3-1-2 1-1-3-2-3-1-2-6-7z"/><path fill="#40302e" d="m511 97 7 3 3-2q6 1 10 3v-2q7 3 12 8l1 1 9 12v2l2 1-9-4q-8-6-17-10l-3 1h-2l-5-4-2-3-2-2z"/><path fill="#4c4643" d="M287 159v2h4l11 2v1c-9 1-9 1-12-1l4 4h-26l-10-1h-8l-4-2 6-2 5-2q15-5 30-1"/><path fill="#4b4440" d="M719 133h1v16l2-4q3 6 2 11v7l1-6 2 2-1 4-1 9-3 6-1 3-3 5h-7l1-2 1-2 1-2q3-7 3-16v-9l-1-6 1-8h1z"/><path fill="#797674" d="M734 311c14 4 14 4 17 8l2 10q2 8 6 15l-1 3h-2l-3-4q-4-8-12-15-3-1-3-5h2l-1-4h-2v6h-1v-2z"/><path fill="#edb89c" d="M459 547c-4 11-15 17-25 22q-12 5-25 6v-2l-10 2-1-2 3-1h3l4-1 5-2 8-3q19-5 34-17z"/><path fill="#423e3a" d="m724 330 2 1 5 2q9 3 13 11l2 3 5 7 1 3v7l-4-7h-2l-5-8-6-6 1 3 3 8 2 3-1 3-6-8q-4-8-11-14l1-3-2-1h3z"/><path fill="#a5a3a0" d="M648 89h2v2h2q8 4 12 14 2 1-1 6l-5-13q7 15 3 29l1 5q1 4-2 7l-1-3-3-16-4-15z"/><path fill="#0e0e0e" d="m218 255 2 1 1 4 1 2-4 8-1 2q-2 6-9 8l-7 7h-2l-1 2-1 3-3 1q2-7 6-14l1-2 9-13 2-4z"/><path fill="#ebe6cf" d="M549 480h1v2q4 27 16 52l1 4h2q3 2 5 5l3 1 5 5 2 1v2h2l9 3 12 3-2 5q-22-3-36-20-13-20-18-43v-2z"/><path fill="#413431" d="m206 345-2 7-4 7 2 1-2 7h-2l-3 4-9 11-3 4h-2q0-7 5-13 6-5 7-14h-3q-3 0-5-2l2-1 2-1 2-2 4-3h3q3 1 6-3z"/><path fill="#dbdad1" d="M508 59q15 3 29 11l2 1q6 2 7 7l-2 1 3 3q-9-2-16-6l-5-2q-11-3-18-12z"/><path fill="#40312f" d="M472 466h1v8h2c4 18-3 38-12 54l-1 3c-6 11-6 11-12 13l-4 4-7 6-2-1 2-1 12-11 2-1 3-6 1-3 4-11 1-2 7-15q3-12 3-26v-3z"/><path fill="#3e3a37" d="m234 249-2 9-2 4-1 3-1 4q-3 6-8 8l-2 1-9 4v-4l2-1q5-1 6-7l2-5 2-4-2-2v-5l4-4h2l1 2z"/><path fill="#43312f" d="m259 474 3 1 2 6 2-3v2l1 10 1 3v3l1 3 1 6v10l-2 4-7-17-1-3q-5-12-1-25"/><path fill="#7b7876" d="m707 163 2 1-1 3v7l-2 5-4 9q-5 9-14 13l-2-1-1 1-6 1h-5l6-4q17-12 25-31z"/><path fill="#4d4743" d="M438 150q13 6 20 18 5 7 11 12-3 1-5-2l-2-2-9-7 3 2 1 4q-5 0-10-3l-3-1-6-5 2-1c1-6 1-6-2-9l-2-2z"/><path fill="#101010" d="m356 698 2 1q1 9-5 16-3 5-8 6-3 1-5-2-1-8 4-13 4-7 12-8"/><path fill="#362c2a" d="M161 400q-1 9-5 16l-1 3q-4 10-11 18h-2l-2 2q0-10 5-20l2-2c8-17 8-17 14-17"/><path fill="#4d4945" d="M196 384q1 5-1 9l-1 3h4q-1 6-6 10l-3 3-5 5-1-2h2l-1-2q0-5 3-9l-1-1-5 3-2 2-7 5-2-1c8-13 8-13 14-15z"/><path fill="#4e4946" d="m725 370 10 13 2 3 8 17q1 4 6 6v2h2l3 6 2 4 1 6q-5-3-9-8l-1-2-6-14q-4-8-13-14l-3-3v-2l-2-1h2l-1-4z"/><path fill="#aba9a6" d="M252 330q0 5-4 8l-8 13q-2 4-5 5l-2-5-2 1q-5 5-12 8l-3-1 14-15 3-4 2 1q6-2 11-7l2-1z"/><path fill="#eae7d0" d="m270 459 1 8c-1 27 1 58 21 79q7 7 17 8l12 2 3 1 7 1v1l-7 1v1q-19 0-34-14l-2-1c-16-18-20-48-20-71v-3q0-6 2-13"/><path fill="#141313" d="M270 502h1l1 3c4 18 10 37 26 47 19 10 40 11 61 12h13v1c-22 6-54 1-74-9l-4-3-2-1c-13-11-20-29-23-45z"/><path fill="#2e2927" d="M232 149v3l-24 8-4 1h-12l1-5 4-1-1-2 12-2 4-1z"/><path fill="#423c39" d="m381 121 18 5h3l7 3v2l2 1 6 3v2q-12 2-23-6l-4-1 2 2h-4l-3-1-4-2 2-1h-6v-2l-3-3 2 1h5z"/><path fill="#423432" d="M527 450q6 5 8 12v3l-4-2v-2l-1-3-5-2-3-2q-13-4-25-1l-8 5h-2q1-4 4-7 17-10 36-2"/><path fill="#443e3b" d="M722 457q3 6 3 11v3q1 12-2 25v3q-1 8-6 14v-25l1-10 3 1v-19z"/><path fill="#918f8c" d="M501 99q4 1 7 3l10 2q4 2 6 5l2 2 2 2 2 2 3 3 2 2q7 6 11 14l-1 3h-2l-3-3q-9-13-22-21l-11-9-3-2-3-2z"/><path fill="#2a2624" d="M707 213c21 3 21 3 29 7l3 5 2 1 4 8-1 2-2-1-7-4q-6-2-9-8l-9-2h-2l-6-1 1-3h-2v-2l-2-1z"/><path fill="#7a7876" d="m663 67 5 5v2q0 5 3 7l3 6 3 1q4 7 3 15l-4-3-2 3-5-6-3 2-1-17h2l-1-4z"/><path fill="#8c8a88" d="M655 165c2 6-2 12-4 17q-7 15-20 20l-3 1 8-13 1-2 6-8 2-2 4-5z"/><path fill="#362e2c" d="M310 83h5l3 1 6 2-2 1 11 4v2l-8-2 4 2v2l-27-2h-2l-11-2v-2l20-3z"/><path fill="#49433f" d="m313 39 22 3h2l3 1h2l7 4q6 5 14 6v1q-8 2-15-1l2 3q-11-1-19-7c-12-8-12-8-18-9z"/><path fill="#534e4b" d="M461 54q13 4 22 13l5 1q7 3 7 7c-23-1-23-1-31-7l1-3q6 0 10 2-2-4-6-5l-2-1-2-1v-2l-4-1z"/><path fill="#a3a19e" d="m754 316 2 1 7 3 2 2 3 1 2 4 1 2 1 2 1 3q3 8 3 17l-2-1v-4l-2-1-5-5-6-6-2-5-5-11z"/><path fill="#e2b69d" d="M644 730q4 3 4 8l1 3v2l3-1 2 5 1 2q3 7 2 13v5h-2l-4-7-3-4-1-2-3-4-1-5h2l-1-2-4-12 3 1z"/><path fill="#211e1d" d="m681 184 4 1-5 5-5 5q-8 7-19 10l-14 5-9 3v-2h2l-1-3 4-3 3-2 6-2v3c26-13 26-13 31-17z"/><path fill="#42312e" d="m404 28 21 8 9 3q4 0 7 5v2h2l14 6-1 3c-23-6-23-6-29-13h2l-1-2h-3l-10-4-2-1z"/><path fill="#161515" d="m232 350 2 1-9 15q-9 9-12 21-3 7-11 11 1-7 7-11l2-2-5-1-7 7-2-1 2-2 16-18 10-11 5-7z"/><path fill="#56524f" d="M723 273q6-1 11 4l2 1 2 2 17 14-2 2-7-4v6l-3-3v-3h-2l-9-4-2-5-6-7z"/><path fill="#2d2826" d="m733 460 2 1v7l4-4 1 12-1 4-1 6h-2v3l-3 10-6 28h-1q0-18 5-36z"/><path fill="#54504d" d="M240 380q-10 16-27 26h-2v2l-2-1 1-5 4-2 2-4c4-5 16-20 24-16"/><path fill="#49413e" d="M461 426h6l6 1c20 6 48 7 68 1h10c-18 12-48 8-68 4l-7-2-10-1z"/><path fill="#463836" d="m150 325 2 1q-1 9-6 16l-4 9-2-1v-1q-3 3-3 7l-4 10-1 2-2 5v-11l-1-3 2-4 6-10q5-11 13-20"/><path fill="#4e4a47" d="m690 188 2 1-5 5-2 1-7 6 2-1 5 1v-2l2 1q-1 4-6 4l-14 6-3 2-4 3-6 2-3-2c3-6 3-6 6-8l5-2q13-5 22-13z"/><path fill="#807e7c" d="M207 266q0 6-4 11l-4 8q-3 7-7 7l-4 1-8 6q0-4 2-6l2-2 1-3 2-2c12-16 12-16 20-20"/><path fill="#a7a5a2" d="M480 86h3v2l10 3 10 4-2-2-4-5q8 3 15 10l6 5-1 3-2-2-7-1-4-2 8 6q-6 0-10-4l-6-4-5-2v-2l-2-1-6-4-2-2-1-1z"/><path fill="#dedecc" d="M625 414h10l2 2q-4 2-9 2h-8q-31 1-62 10l-7-1q36-11 74-13"/><path fill="#47403c" d="M143 308q1 6-2 11l-1 2q-2 6-6 10l-1 3-7 6-2 3h-2q1-11 8-20l1-2 7-8z"/><path fill="#d5d3ce" d="M465 71h3l17 2 5 1 5 1v3l3 2v4l3 2-9-2-8-2q-9-1-17-8l8 2v-2h-4l-3-1h-2z"/><path fill="#eae3cb" d="m566 401 2 1-1 1-5 13q0 6-4 6l-7 2-6 2c-30 7-59 1-89-5v-1l10 1 1-16q2 4 2 10l-1 3v3a196 196 0 0 0 90-1q4-6 4-13z"/><path fill="#83817f" d="M687 124q5 4 5 10l1 2 1 6 1 4h2v-10h1c1 16 1 16-3 22h-2l-1 2q0 4-4 4l-2 1 1-6 2 2q2-11-2-23v-9l-1-3z"/><path fill="#46403d" d="m210 189-6 3v-2h-21l-7 1-3 1h-9c10-16 32-8 46-3"/><path fill="#e4ddc7" d="m528 481 3 7 1 3 1 3q7 33 28 59l2 2q8 8 18 13l-2 1q-13-6-22-17l-1-1-1 2-15-30-9-16-2-7h2l-1-7q-2-6-2-12"/><path fill="#eab89d" d="m629 748 2 1v2h2l5 11 1 3q4 8 3 16l-3-3-2-1-2-2-2-1-3-7-1-2q-3-7-1-12h2z"/><path fill="#494440" d="M233 194h50q8 0 15 5v1q-21 1-42-3l-23-1z"/><path fill="#42312f" d="m436 40 14 5 3 1 14 9-1 2-4-2-1 2h2l5 4 3 2q3 1 4 4h-2l-5-1-17-6h6l4 1-2-1v-2l-2-1-5-3h4l1-2-8-3q-8-2-13-9"/><path fill="#7f7d7a" d="M454 146q6 3 11 9l4 3 8 9 1 2 4 10 4 5-2 1-1-1-12-13-4-6-3-3-2-5-2-1q-3-1-4-6l-1-2z"/><path fill="#121111" d="M465 781q4 0 7 3 1 8-2 15l-4 3-5-2q-3-6 0-12z"/><path fill="#4b4643" d="M227 320q1 5-1 8l-3 6c-6 16-6 16-12 21h-1v-3l-1-7 2-4 1-2 4-5h2l1-2 5-8 2-2z"/><path fill="#d9d9c9" d="m704 420 21 5 3 1 22 7 2 1q6 2 11 6v10q1 6-2 7v-6l-1-3-1-8-4-1-12-4-3-2-7-2q-15-6-30-8z"/><path fill="#262321" d="M723 255q5 1 9 5l4 7q2 4 6 6l3 6h2l2 5-1 1 5 4q-8-2-15-8l-4-7-7-11z"/><path fill="#d7d6c7" d="M399 410h2l22 3 6 1 29 5q-3 3-8 2l-5-1-27-4-18-1-17-2q7-4 16-3"/><path fill="#423331" d="m417 421 18 1h8q10 1 20 3l-4 2h-3l-2-1h-6l-7-1 3 1 6 1 5 2 1 2q-8 2-15-1l-5-2h-2l-14-4v-2z"/><path fill="#494541" d="M357 104h12l12 3h6l1 4 3 1 5 1h2l11 4q-6 2-12-1l-13-3a64 64 0 0 1-24-6l-7-1z"/><path fill="#3d302d" d="M427 55q7 0 13 4l2 1 19 12q-5 1-11-1l-5-1-2-1-5-1q-4 0-6-3l-1-6z"/><path fill="#dab7a0" d="M350 752q0 7-4 13l-2 3-2 4-5 9-4 8-4-1q3-15 12-25l1-2c5-9 5-9 8-9"/><path fill="#47423e" d="M167 353v5l-1 4-1 2q-4 12-12 22l-3 6v-11l1-4q3-11 11-18z"/><path fill="#1b1918" d="m717 534 2 1q-1 6-7 11l-2 2-15 11-2 1q-11 6-23 4v-2l3-1q18-2 31-13h2l1-2 4-3 3-3 1-3z"/><path fill="#443b38" d="m475 108 22 6v-2l-3-1 1-3q10 8 17 19l-12-7q-4-3-10-4v1q-7 2-12-1l-6-4 5-1z"/><path fill="#3e312f" d="M506 149q6 2 8 9l1 3 1 3 1 2 6 19 1 3v9l-2-5h-2l-1-4-1-3-2-5-2-6-4-12z"/><path fill="#c9b1a0" d="m272 683 4 3-1 2q-7 10-12 22l-4 8h-2c-2-9 3-16 7-24l4-8h2z"/><path fill="#edead2" d="m606 559 3 1q16 3 32 2h2q10 1 19-2l6-1h5l1 3-4 1h-3q-14 2-29 2h-7q-14 1-26-2l-1-2h2z"/><path fill="#eddcc2" d="m564 802 2 2 4 2 1-2 5 12 1 2 1 3q3 6 2 13l-2 1-1-3-2-1-3-4-1-3-6-18z"/><path fill="#1f1d1c" d="M250 304h2v5l2-2q0 7-4 13l-6 6-1 1q-4 5-6 4l-2 4q1-9 7-17l3-5z"/><path fill="#3b2d2b" d="M605 424h4l-1 2-5 1-4 1h-3c-20 4-36 9-49 26l-4 2 6-8 1-2 4-2 1-3q22-17 50-17"/><path fill="#2c2826" d="M452 168q7 3 12 9t11 9v-2q5 1 7 7l-4 2q-13-6-25-17l4-1-2-2q-4-3-3-5"/><path fill="#efae92" d="M536 613q-19 6-39 5h-15l-1-2-7-1v-1h36l3-1 17-1z"/><path fill="#b9a193" d="m362 766 2 1-5 11-1 4-4 9-5 11h-4q0-8 5-17l1-3 7-10z"/><path fill="#acaaa7" d="m523 49 4 4v2l2-1q5 0 8 3v2h2q4 2 5 6h-3q0 4 3 7-9-2-16-11l-2-1v-2l-3-1v-2h2l-2-3z"/><path fill="#131212" d="m233 282 2 1-6 5h3l-9 8-2 2-5 4q-8 7-12 15l-2-1v-3l5-5v-2l4-6 6-7 10-7 1-2z"/><path fill="#48403d" d="m289 162 2 1h9q13-1 22 9l8 4c-4 2-11-2-16-3l-5-2-12-3q-4 0-7-3z"/><path fill="#7b7977" d="m343 45 21 3 6 2h2l13 3v1l-8-1v5l3 1-2 1-5-2-13-5q-7-1-13-6z"/><path fill="#151413" d="m638 117 6 12 3-1 1 28v10l-1 6h-2l1-26h-2v-3q-1-9-5-17z"/><path fill="#3f3532" d="M676 564v1l-10 2h-2l-3 1-2 1-18 1h-14q-12 1-22-2v-1h39l23-3z"/><path fill="#45413d" d="M716 447h2l3 9h-2v-2l-6-1 2 1 1 5-4 7 1 2 1 5h2l-1 2h-6q-2-2-2-5-1-11 5-20h2v2h2z"/><path fill="#ddb29b" d="M315 726h3l-8 17q-4 6-4 14l-3 7h-4q0-8 5-17l1-3 3-7h2z"/><path fill="#494441" d="M663 172q1 5-1 10l-3 13q1 4-3 7l-9 2q1-9 7-16l1-2h3l1-2z"/><path fill="#111110" d="m330 136 7 1v3h2l15 6q10 6 21 5l13 4h2l5 2v1q-31-2-59-17l-6-2z"/><path fill="#7d7b79" d="M368 109q5 2 11 3-10 4-22 1l-17-5v-1q14-3 28 2"/><path fill="#40312e" d="m262 117 18 6 9 4c-8 3-18-1-26-4l-3-1-6-2v-2l-10-2 8-2h2q4 0 8 3"/><path fill="#3a312f" d="M459 141q8-1 14 4l3 2q14 9 23 24l-2 4-1-1-6-7-2-2-3-5-3-4-6-5v-2l-8-4-3-1-6-2z"/><path fill="#3a2f2d" d="m426 100 4 1 8-1q7 0 10 5l7 5 1 1 7 4v2l-11-4-6-2-3-1-2-1-3-4-6-2-3-1-3-1z"/><path fill="#ebd6bc" d="m591 439-2 1c-20 8-20 8-28 16l-2 2q-8 8-10 18h-1a36 36 0 0 1 11-26l3-3 2 1q6 0 10-4c12-7 12-7 17-5"/><path fill="#282523" d="m273 108 2 1 16 3q-2 3-5 2h-9l6 4h-12l-2-1-6-1v-2l-6-1q5-4 12-3h4z"/><path fill="#312a28" d="m426 556 2 1q-3 5-10 6h-3l-3 1-4 1-26 3h-7v-1l6-1 5-2h6l7-1 12-1 1-2 5-2z"/><path fill="#d4d2c3" d="M718 447c4 5 4 5 4 8h2l2 22v3a163 163 0 0 1-5 40h-2l-2 2v-2l4-19 1-2q4-20 0-41l-2-2-1-5z"/><path fill="#eae1c9" d="m730 527 1 7v3l-1 2v3l-1 15-2 14-1 8-3 28-1 3-1 8h-1l3-32 5-46h-2l1-6 1-3z"/><path fill="#b5b3ae" d="M660 62q7 3 11 11l1 2 9 20h-2l-2-5-4-5q-6-6-7-15h-1v3l2 9h-2l1 9-2-6-3-15z"/><path fill="#4e4a47" d="M734 311c14 4 14 4 17 8q3 7 2 14l-5-7-6-5-1 1-2-1v-2h-2v6h-1v-2z"/><path fill="#1b1a19" d="m247 298 2 2-13 12-5 5-6 3 3-9-3-1q3-4 8-4 8-2 14-8"/><path fill="#3d3734" d="m745 275 2 2 4-1c14 18 14 18 14 27l-2-2-9-9q-3-2-4-5l-2-1q-2-3-1-7h-2l-1-3z"/><path fill="#9d9b99" d="m369 131 3 3 2 1-1 3-12-1-4-1-18-2v-1q15-5 30-2"/><path fill="#f5ddc0" d="m685 431 15 3-4 1-1 4h3v3h2l1-3 2 3-2 4 4 1 1 6h2l-1 9-4-7v-2l-1-2h-2l-1-2q-4-10-12-15l-2-2z"/><path fill="#3a2f2d" d="M705 205q-2 4-5 4l-3 1-4 2-12 5-9 5-7 1v-2l14-8h2l8-4 7-3z"/><path fill="#453f3c" d="m668 95 2 2 4 5 2-2 4 9 4 6 1 3 1 2v6l-5-9 2 9q-4-4-6-10l-1-2q-4-6-6-13l-2-3z"/><path fill="#e6b89d" d="M406 808q4 5 1 12-2 7-7 12l-3-1q0-8 3-14l1-2q1-5 5-7"/><path fill="#393532" d="m735 237 6 5v2h3q7 4 10 10l3 8-3-2-7-5-2-2-5-2-3-4-2-3z"/><path fill="#efc4a9" d="M607 432v2l-3 1-4 1h-2l-7 3-4 1-15 6q-4 3-9 3 3-7 11-9l2-1q9-4 19-5l4-1z"/><path fill="#48413e" d="M604 95q6 5 9 12l3 7 2 5h2l-1 2 1 6-1 2h-2l-1-6-2 2q-5-11-7-23z"/><path fill="#2f2a28" d="m579 795 9 11 2 3 1 6h-2l-1 4q-9-8-11-20l3-1z"/><path fill="#0f0e0e" d="M232 369h2l-6 9 3-2-4 7 6-5 4 2-1 1q-13 7-22 18 0-3 2-7l2-5-3 2 5-7 10-11z"/><path fill="#3b302e" d="M247 164q-4 3-10 3h3l5 1v2h10v1l-9 1h-15l-12 1-6-2h2l10-3 12-4z"/><path fill="#2b2826" d="m427 105 2 4-2-1-10-3-2 1-6-2-5 2-6 1-1-2 4-1v-3l3 1-1-3q14-2 24 6"/><path fill="#deb39b" d="M470 829h1l2 8v17h-6q-2-3-1-6l2-17h2z"/><path fill="#484340" d="m435 141 6 2v-2c8 1 12 9 17 14l6 7 2 5-7-5q-7-8-16-14v-2h-3l-4-3z"/><path fill="#aeaca9" d="M600 117h2l6 12 2 3q5 10 7 19-5-4-8-12l-7-8-2-3 1-3-2-6z"/><path fill="#7a7876" d="M369 103h4q12 0 23 5h-3l1 2 6 1 4 4q-9 0-16-4l-1-4-3 1-5-1-10-2h-8q3-3 8-2"/><path fill="#e9ba9f" d="m428 816 2 4-3 8-1 2q-2 6-7 9h-2q0-10 5-20h4z"/><path fill="#453533" d="M471 444q6 7 6 16v15c0 7 0 7-2 10v-11h-2z"/><path fill="#2b2826" d="M180 418h2v5l3-1 1 2-4 5-2 2q-4 6-11 8c6-15 6-15 11-21"/><path fill="#141313" d="M555 520q3 1 5 4l2 4c7 15 13 24 28 30v2q-12-2-20-12l-2-5-3-1-4-6-2-4-5-10z"/><path fill="#7d7b79" d="M574 43q8 0 13 5l3 2 5 9 3 3 2 3-1 3c-5-6-5-6-5-8h-2l-10-8-6-4v-2h-2z"/><path fill="#3d3331" d="m305 415-10 4h-2l-7 1-2 1c-27 6-27 6-37 6v-2l34-7 2-1z"/><path fill="#3a2e2c" d="m229 202 2 1 10 2 9 2 4 1h2q-3 3-7 2h-3l-2-1h-3l-11-2h-12l-1-4q5-3 12-1"/><path fill="#463835" d="M206 345c0 7-7 14-11 19h-2v-5h-3q-3 0-5-2l2-1 2-1 2-2 4-3h3q3 1 6-3z"/><path fill="#7f7d7b" d="m438 57 13 5-1-2 17 6-2 2 3 3q-12 0-22-7l-2-2-6-4z"/><path fill="#49403d" d="m486 36 9 5v2l2 1 10 8 2 2 4 4q-7 0-13-4l-14-16z"/><path fill="#89827e" d="m549 816 5 2 4 9 4 7v7l-4-1-4-7-1-2q-3-7-4-15"/><path fill="#413633" d="M566 178q4 1 4 7l2 16v2q0 6-2 11h-2l-1-14-1-12z"/><path fill="#3d322f" d="m178 275 1 2-4 8-2 3-1 4-2 3-7 8-2-1q-1-5 3-9l5-6c5-10 5-10 9-12"/><path fill="#e0b49b" d="m331 745 1 2-2 4-4 8-2 4-1 2-1 2-1 3-2 5h-4q0-7 5-13l2-8q3-6 9-9"/><path fill="#2d2826" d="m149 416 3 2q2 6-2 11l-6 8h-2l-2 2q-1-11 7-19z"/><path fill="#4a4340" d="m482 176 10 11 3 2c5 6 5 6 5 9l3 1 2 4 2 1v2q-9-3-15-12l-4-5-5-8-3-4z"/><path fill="#baa091" d="m373 785 2 2q0 8-5 15l-1 2q-2 5-7 7l4-14 1-2c3-9 3-9 6-10"/><path fill="#7c7a78" d="m286 160 6 1h3l7 3c-9 1-9 1-12-1l4 4h-2l-29-2q2-3 5-4h15z"/><path fill="#2b2826" d="M561 114q11 6 16 17l5 18q-4-4-5-9l-5-7q-5-7-9-15z"/><path fill="#7d7a78" d="m442 828 7 2q1 9-3 18l-4 2-1-8v-5z"/><path fill="#e8dec7" d="M401 636v11l2-2q3-4 6-3l-1 2c-12 14-12 14-11 24l7 1v1h-8q-2-3-2-7l1-7 3-8 2-11q-8 1-14 6 5-10 15-7"/><path fill="#2d2826" d="m203 499 3 2h3l-1 2-7 16h-2l-1 2-1-10v-4q1-4 4-6z"/><path fill="#46413e" d="m628 155 2 1 1 8 1 3v8l1 3v2l2 1-1 2v8h-2l-1-4-2 8h-1z"/><path fill="#d2b29d" d="m283 705 2 1-2 7-2 5-4 9-2 3-1 2h-3q0-6 3-13l1-4 7-8z"/><path fill="#392d2b" d="m162 260 2 1-8 7-2 2-2 3-2 1-5 4-1-2-4 3 1-6 3-1 1-2q1-3 5-4l3-2 3-1 3-2z"/><path fill="#141413" d="m256 341 3 2h3l-5 7-2 2-9 11v-4l-4 4q1-5 5-9l4-8h4z"/><path fill="#433d39" d="m319 89 1 2-8 1h-15l-8-1v-2c23-4 23-4 30 0"/><path fill="#ebdac0" d="M411 774h4c3 7-1 15-3 22l-2 7h2l6-11 1 2-2 4-1 3-1 2-2 3-5 11-2-8-1-3 3-5 4-12v-2q2-6 2-12z"/><path fill="#ecd3b9" d="M622 429v1l-5 1h14l-12 3-20 4-7-1 5-1 2-1 8-1v-2l-3 1-4 1-2 1h-10q16-6 34-6"/><path fill="#c4ad9e" d="M298 716h3l-5 11-10 22-2-1q1-8 5-15l1-2z"/><path fill="#2e2927" d="m206 415 2 1c-12 16-12 16-16 19l-4-1 4-10 6-2 4-4z"/><path fill="#adaba7" d="M714 147h1q2 11-3 20l-1 3-8 17-1-2 4-9v-6l2-7-1-3 2-1q4-6 5-12"/><path fill="#443c39" d="m214 436-13 7-6 2-12 5-1-2q14-13 32-12"/><path fill="#534e4b" d="M326 565h50l9 1v1l-26 1h-8q-13 1-25-2z"/><path fill="#3f302e" d="M546 453q1 5-1 9l-2 7-1 2v17h-2c-2-12-4-21 2-32h3z"/><path fill="#ebbfa3" d="M307 702h2q-4 15-12 28l-11 20 5-13 1-2 9-19h-2l4-8z"/><path fill="#453937" d="M547 428h4c-10 7-26 7-38 7h-2q-5 0-9-2l-1-2h2c27 0 27 0 38-3z"/><path fill="#37322f" d="M243 343v5l-1 3-1 3-1 2 8-10 1 2-2 4-4 7q-3 7-10 10-1-7 4-13l4-10z"/><path fill="#2f2927" d="M288 212q15 2 29 9l1 2q-15 1-28-8z"/><path fill="#deddd5" d="M755 255h6l3 4 2 3 5 10-2 2-1-3-2-1q-7-4-11-12z"/><path fill="#2b2725" d="M290 168h9q6 0 11 2l-1 5-19-1 1-4z"/><path fill="#73716e" d="M478 81q11 0 21 5l-1 3 3 2 2 2v2q-13-5-25-13z"/><path fill="#eee7ce" d="m374 638 6 1q1 11-5 20l4-7 1 2-5 9q-5 9-3 17l-3-3v-8l-3 5-1-2 2-5 2-3 4-6q5-8 6-18l-5-1z"/><path fill="#3a322f" d="M504 105c22 14 22 14 25 21l-7-4q-4-4-9-5l-10-7z"/><path fill="#b7a59a" d="M601 789q5 1 7 5l2 4 1 1 2 5h1l-1 8h-3l-4-9-2-3-1-2-1-3z"/><path fill="#332b29" d="M162 282h3q-3 13-13 22l-1-4 3-7 1-2q3-6 6-6z"/><path fill="#282523" d="M209 383v2h2q-1 5-6 7l-3 4-2-1-2 5-1-3-5 1c3-6 3-6 6-8l6-5q2-2 5-2"/><path fill="#969491" d="m743 222 2 1q3 1 5 4h-3l1 2 4 8-2 2-10-11-5-6z"/><path fill="#6f6c6a" d="m389 129 9 3 9 5 10 5v1q-8 1-16-4l-2-1q-5-1-9-6z"/><path fill="#262322" d="m192 307 2 4-7 4-3 4-7 4-4-2q5-8 12-12l2 1q3-1 5-3"/><path fill="#b6b4af" d="m762 269 6 2 1 2h3l4 4 1-5 3 7h2c2 5 2 5 1 8l-2-1-12-9-8-7z"/><path fill="#413b38" d="M673 205q-2 5-8 6l-5 4-6 2-3-2q2-6 8-9z"/><path fill="#8a8785" d="M475 18q10 2 20 7v2l5 5-1 2-3-3-3 1-4-3-9-6-2-1v-2l-3-1z"/><path fill="#d5d3c9" d="M741 213c12 1 23 10 31 19l2 6-7-8q-4-5-10-7l-5 1-5-3v-3l-1-2-5-2z"/><path fill="#ebd9bf" d="m372 741 1 4-3 7-4 7 1 2v6l-1 2-1 2-2 3-1 2-4 6-1-2 5-8 1-3-1-2-5 8-1-2 3-6 1-2 3-5 5-11z"/><path fill="#483f3c" d="M269 508q2 3 3 7l7 18 3 7-1 2-1-2h-2l-3-7-1-2q-5-8-5-17v-3z"/><path fill="#2d2826" d="M312 194v2l3 3 4 1 6 2 3 1 2 1-1 2-17-2v-2l-4-2 2-1h-2l-3-1h-3l-2-1-1-2h8z"/><path fill="#d6b29c" d="m253 675 1 4-1 2-1 2-5 13h-4q-1-10 6-18z"/><path fill="#413230" d="M217 151q-5 3-11 3l-2 1-1 2 5 1v2l-5 1-3 1-8-1 1-5 4-1-1-2 7-1h2z"/><path fill="#111" d="M211 339v5l-2 5-2 6-3 8-2-1-4-3 2-3 6-10-5 5-2-1z"/><path fill="#e9ddc5" d="M537 217q8 4 12 11 6-2 8-7l2-2 2-2 4 2 1 6-4-4-2 2-3 3-2 2-6 2q-3-1-5-5l-2-2-1-1 1 2v10l-4 2-2-2h4l-1-10z"/><path fill="#e5e4d2" d="M635 414h28l11 1v1l-24 1h-14z"/><path fill="#453a37" d="m316 422 1 2-2 1-11 3-3 1-4 1-3 1-7 4-2-1q13-13 31-12"/><path fill="#3c312f" d="m461 522 3 1a44 44 0 0 1-10 19l-4 2-4 4-7 6-2-1 2-1 12-11 2-1 3-7z"/><path fill="#2b2826" d="m736 438 1 3 4 2-1 3 1 6h-2v-2l-2 1-4-3c-4-5-4-5-4-9z"/><path fill="#5f5b58" d="m738 341 5 3 2 2q6 6 8 14l-1 4-4-7h-2l-4-5-1-3z"/><path fill="#9a9895" d="m521 87 2 1 5 2q7 3 11 9l2 2 5 4-3 1-1-2q-2-4-7-3l-12-8v-3z"/><path fill="#e3baa1" d="M391 801q1 8-4 13l-2 2q-3 6-6 6 1-11 8-19z"/><path fill="#413a37" d="M545 133h2l4 8 1 2q5 9 6 19-3-1-4-6l-6-11-4-9z"/><path fill="#2b2826" d="m533 103 2 2 7 6 1-1-1-2q7 4 11 12v2l2 1q-6-1-11-6v-2l-4-2-4-3v-2l-2-1-4-3z"/><path fill="#e8e4cc" d="M741 553h1l-1 34-1 4v12l2-1-3 8h-2z"/><path fill="#392e2c" d="m582 557 3 1q10 5 22 7l4 2q-16 2-30-6z"/><path fill="#3d302e" d="M204 520h2q-1 12-5 22-3-5-2-12v-2c0-8 0-8 5-8"/><path fill="#6c6967" d="m725 333 2 2-1 4h3q5 1 6 4l4 11 2 3-1 3-6-8q-4-8-11-14l1-3-2-1z"/><path fill="#d1af9a" d="M617 775q6 1 8 7l2 2q3 7 3 13-5-1-7-6l-1-3z"/><path fill="#d6d5c7" d="m704 420 22 5 4 1 12 5-3 2-5-1-3-2-3-1q-12-4-25-6z"/><path fill="#1b1a19" d="M657 162h1v10l-1 13h-3l-1-1-3 3q-1-4 1-9z"/><path fill="#2d2725" d="m475 108 16 4-1 5q-7 2-12-1l-6-4 5-1z"/><path fill="#443634" d="m402 88 17 3h2l6 2 1 3h-2l-3-1-2-1-7 2q-7-1-13-6z"/><path fill="#f2dbbe" d="m708 474 8 3v17l-1 31h-1l-1-47-5-2z"/><path fill="#c6c5bc" d="M743 444c7 0 7 0 10 2l-1 7-5 1-6-5z"/><path fill="#3d3230" d="m755 406 4 4 5 3 1 5 1 2v2l-4-4-2 2q-4-1-6-5v-8z"/><path fill="#382e2c" d="m234 249-2 7v-3h-3l-1 2q-1 5-6 6l-3-1q0-5 2-8l4-2 1 2z"/><path fill="#e5dfc9" d="M451 722q5 0 8 2 3 3 3 7l4-2-1 1q-7 10-9 22l-2-2-1 2q-4 2-10 1l-2-2h2q5 2 10-2l2-4 1-2q3-9 2-18l-7-2z"/><path fill="#2c2826" d="m458 506 1 3 1-1 2-2q0 8-5 15l-2 4-1 2-4 8q-3 5-8 8l4-8h3v-2l2-8 2-2 1-2 1-2h2v-8z"/><path fill="#413634" d="m368 177 4 2 2 1v1h-18l-8-1v-1h3l4-1 2-3q6-2 11 2"/><path fill="#888684" d="m595 87 4 2 2 1q3 3 5 7l1 4 2 9-3-1-4-9-2-5-4-1-3-5 4 1z"/><path fill="#aaa8a5" d="m544 75 9 6v2l2 1q4 2 7 6l-4 2-5-4-3-3-7-6 1-2z"/><path fill="#483c39" d="m436 40 14 5 3 1 14 9-1 2-3-2-4-2-3-1-11-5q-6-1-9-7"/><path fill="#2c2826" d="m741 452 5 2 2 5 5 2q-2 6-8 8l-2-1 1-10-3-2z"/><path fill="#443634" d="m252 342 4 2-1 3-4-1v2l-4 6-1 2-1 1-2-1 5-8-1 2-2 2-2 2-1 2h-2l-1 3 4-14h3z"/><path fill="#3d3735" d="M421 127a50 50 0 0 1 18 10v2l3 1-1 2-2-1-6-2-1 2-2-3-4-4v-2l-2-1z"/><path fill="#cfb4a2" d="m572 817 3 1v3l3-1 2 14-2 1-1-3-2-1-3-3v-3l-1-3z"/><path fill="#eab89d" d="m677 702 3 3 2 1q4 7 3 15l-5-5-2-1-5-12 4 1z"/><path fill="#83817e" d="m238 656 3 1-4 11-5 11-3-1 5-14 1-3z"/><path fill="#caad9e" d="m244 457 1 4h-2v2l-2-1-1 1-6-1h-3l-1-3-2-2q8-4 16 0"/><path fill="#7a7875" d="m681 188 2 3-3 2-1 4q-2 4-8 5l-9 4-3 2-2-1 2-2 4-2 3-2 8-7 4-3 2-2z"/><path fill="#bdaca0" d="m634 761 2 3 2 2q5 7 4 15-7-5-9-14v-5z"/><path fill="#aeaca9" d="m647 133 7 4v3l4 8v5l-2-2-5-4v5h-1v-5l-1-3v-2l-2-1z"/><path fill="#352d2b" d="m404 28 19 7h2c6 3 6 3 8 6q-9 0-17-5l-2-1z"/><path fill="#2d2826" d="m717 534 2 1q-1 6-7 11l-4 4-9 7-3-1 2-1 6-7h2l1-2 4-3 3-3 1-3z"/><path fill="#a7a4a1" d="m495 75 4 1v2l4 2v2l2 1 5 5c-8 1-8 1-12-2l-2-3 1-3-5-2 3-1z"/><path fill="#2b2826" d="m259 474 3 1 2 6 2-3v8l-3-2-3 11q-2-5-2-10v-3z"/><path fill="#3b2c2a" d="m511 77 2 1 9 2-2-1v-2l7 4 3 2 2 2v2l2 1 4 4q-7-1-12-6l-4-2-11-6z"/><path fill="#b4aaa1" d="m647 737 2 6 3-1q6 9 3 20-4-5-4-11l-1-6h-4l-1-7z"/><path fill="#171615" d="m718 352 13 6 1 3-4-1v-2h-2l1 5h-2v3h-3l-2-5-1-3z"/><path fill="#4a413d" d="M628 133q8 8 9 18h-2l1 4 1 9q-5-9-4-20h-2l-4-4-1-5h2z"/><path fill="#55504d" d="m725 370 9 12 2 3 3 5q-3 1-5-2l-3-3-3-2-1 3v-2l-2-1h2l-1-4z"/><path fill="#a9978b" d="M589 807h5l2 5 1 2v8h-3q-5-7-5-15"/><path fill="#3a2f2d" d="m731 491 2 4-4 21v3l-2 8h-1q0-14 3-26v-3z"/><path fill="#443937" d="M198 396q-1 6-6 10l-3 3-5 5-1-2h2l-1-2 1-5 2-2 1 1 1-2q2-7 9-6"/><path fill="#141313" d="M720 336c7 5 15 10 16 20l1 4-4-2h2l-1-4-4-2 2-1-1-1-5-5 1 4-5-7-1-2z"/><path fill="#342b29" d="m409 130 10 4 4 2 8 7-2 1-4-4-1 3-11-4v-2h4z"/><path fill="#ede0c7" d="m342 706 1 2-1 2-1 9v3l-2-2-3 7h-1l1-16q-4 0-7 4l-2 1-2 2q0-3 2-5l2-2 2-2 5-1 3 3z"/><path fill="#cfcdc4" d="M259 434v8l-4 1q-3 0-5-2v-5q4-4 9-2"/><path fill="#a6a4a1" d="m746 240 1 1 2 2 2 1 5 4 4 7h-5l-1 2q-6-8-8-17"/><path fill="#f0dbbf" d="m609 753 8 13 1 3 1 2 1 2 1 2-1 2-3-2 2 3 2 4-1 2-5-7-1-2-3-5 1-2 2 2-2-9c-3-5-3-5-3-8"/><path fill="#595451" d="M657 97q8 8 8 18v14l-4 2v-7q2-11-3-23z"/><path fill="#eecfb4" d="M585 788q4 5 6 11l1 4 1 5q-4-1-6-4l-4-7 1-3h2z"/><path fill="#edb195" d="M474 614h31v2l-7 1h-3l-3 1h-10l-1-2-7-1z"/><path fill="#2b2826" d="M243 441q7 4 9 10l1 5 1 4-5-5-3-3-4-6z"/><path fill="#ede2c8" d="m283 243-2 1q-14 6-21 17l-2 13v8h-1c-1-20-1-20 4-27 14-15 14-15 22-12"/><path fill="#4a4440" d="m310 127 24 7v1l-10 2q-8-4-14-9z"/><path fill="#4e4945" d="m406 60 5 1h2l3 1 5 1 4 1-1 5 2 1-10-3-4-1-8-4z"/><path fill="#777573" d="m337 772 2 1-6 16-4-1q1-7 5-14h2z"/><path fill="#e9cbb1" d="M706 435q8 1 12 7 5 6 5 13l-3-6-1-2-4-1-4-5-6-2z"/><path fill="#463230" d="m160 362 2 3-2 5-1 2-5 10h-1c-1-9 1-13 7-20"/><path fill="#3e302e" d="M133 351h4l-2 12-5 10v-11l-1-3 2-4 1-2z"/><path fill="#6e6b68" d="M687 124q4 4 5 9v3l1 9-1-1-4-2-1-6-1-3z"/><path fill="#2e2927" d="M486 30q11 5 15 15l-6-2v-2l-2-1c-9-4-9-4-12-9l3 1v2l7 2-2-1-3-2z"/><path fill="#302b29" d="M279 153q11-1 19 7l-11 1v-2h-2l-4-2v-3z"/><path fill="#221f1e" d="M492 97q15 7 29 17l-1 3-15-11v2l-7-4z"/><path fill="#7b7977" d="M536 58q4 1 7 5l1 2h-3q0 4 3 7-6-1-11-6l-1-4 1-2 4 1-1-1z"/><path fill="#141313" d="m711 474 6 2v8l1 14v12l2-4q0 9-3 16h-1v-43q-2-4-5-5"/><path fill="#3a2d2b" d="M140 370h2l-1 8 1-3h2l-4 12-2 4-1 2h-1q0-11 4-23"/><path fill="#7f7c7a" d="M704 152h1q2 5-2 10c-6 8-6 8-10 10q1-7 7-13z"/><path fill="#ceccc8" d="M663 133h6l-2 17h-1l-1-7-2 11h-1z"/><path fill="#efedd5" d="m535 582 6 2v7l-3 1q-3 1-5-2v-6z"/><path fill="#262321" d="m219 218-2 1v2l-1 2-7 1h-3q-3 0-5-2l5-2 3-1q5-3 10-1"/><path fill="#392d2b" d="M633 183h5l1 4-3 4-2 2-1 2-2-1-3 5-1-8h2l1-6 2 6h2l-1-2z"/><path fill="#7f7c7a" d="M424 65q6 0 11 3l8 2-4 2h-3l-2 1-6-2-2-1-2-1z"/><path fill="#372e2c" d="M233 194h31l1 4h-2l-30-2z"/><path fill="#8a807a" d="M676 564v1l-10 2h-2q-11 3-23 3h-8v-1l26-3 2-1h2l4-1z"/><path fill="#e8d7bf" d="m552 542 2 2q8 12 22 21l5 4q-14-5-24-17l-1-1-1 2q-4-5-3-11"/><path fill="#b9b7b1" d="m726 303 7 2q6 3 11 8h-6c-9-4-9-4-12-8z"/><path fill="#423d39" d="m212 134 5 2v2c-15-1-15-1-20-3l-1-3q7-2 16 2"/><path fill="#b69f91" d="M307 743q2 11-4 21h-4v-6l2-2 4-8 1-3z"/><path fill="#534c49" d="m252 335 4 3 1 2 2 1-3 1-11 5-1-4 3-2 2 1-1-3z"/><path fill="#4a433f" d="m735 237 6 5v2l5 2v4l-4-2 1 3h-3l-3-4-2-3z"/><path fill="#403734" d="m646 201 2 4q-3 5-10 6l-3 1-2 1v-2h2l-1-3 4-3 3-2z"/><path fill="#282523" d="M730 151h1q1 8-3 15l-1 9h-2l-1 2-3 3 1-2 2-7c2-16 2-16 6-20"/><path fill="#2c2927" d="M663 121h1q1 17-3 33h-1l-3-12h2v-3h2z"/><path fill="#74726f" d="M570 55c11 11 11 11 12 17l-2 2-1-2-1-2-1-3-2-3 2 17-2-1-4-19z"/><path fill="#e1b49b" d="m546 808 4 5 2-1q5 4 6 10l1 3v7l-1-3-1-3-2-4-3-4-2-1-1 3q-4-5-3-12"/><path fill="#3a312e" d="m728 383 9 7 3 1 2 4v2l1 2-2 1-1-2-9-9-3-2z"/><path fill="#8a8886" d="M604 128q7 6 11 14l1 3v6c-12-18-12-18-12-23"/><path fill="#47413e" d="M592 60h2l5 7 7 9 4 7 1 2q2 5 1 10l-1-3-17-28z"/><path fill="#9b938e" d="m469 840 4 1v11h-6v-5l1-4z"/><path fill="#f8d9bb" d="M361 559h9q6-1 10 3h-35v-1z"/><path fill="#a29991" d="M718 447c4 5 4 5 4 8h2q3 12 2 23v12l-2-4v-7c0-15 0-15-2-21l-2-2-1-5z"/><path fill="#ebe3cb" d="M467 405q4 7 1 16l17 3v1l-18-2-4-1-7-1v-1l10 1z"/><path fill="#d7d6c7" d="m635 414 2 2q-4 3-10 2h-8l-5-2q11-4 21-2"/><path fill="#dfded4" d="M738 308q9 2 14 8l2-1 3 6-1 2-3-2-2 1-1-2q-1-3-4-4l-3-1-2-2 2-1-2-1-3-2z"/><path fill="#ece3ca" d="m580 212 2 1q3 10 2 20h-1l-3-16-3 5-7 9-3-1-1-5 2 4q8-8 12-17"/><path fill="#e9e1c9" d="M399 210q11 1 21 4l2 1 17 5v1l-17-4q-9-3-18-4-3 0-5-3"/><path fill="#787674" d="m590 90 3 5q4 7 9 13l2 3-1 3-4-5-4-5q-5-4-6-9z"/><path fill="#292524" d="m441 61 12 6 2 1 6 5-5-1h-3l-5-3 2-1-2-1h-2l-3-1-3-3z"/><path fill="#eae2cb" d="M586 643q9 1 14 7l7 10v-8l3 9v4l-12-12q-4-7-12-9z"/><path fill="#362c2a" d="m567 436-3 2-3 3-2 1-10 10-6 4 6-8 1-2 4-2 1-3 4-3 3-2z"/><path fill="#100f0f" d="M746 398q6 3 6 6v2h2l1 5q-4 1-7-2l-4-7z"/><path fill="#322d2b" d="M723 255q4 0 6 3l5 9 2 3 1 3-1 2-5-6-1-2z"/><path fill="#7c7a77" d="m720 206 2 1-5 4 5-1 2 4h-16q4-5 9-5v-2z"/><path fill="#413633" d="m274 421-1 2-7 2h-3l-16 2v-2l12-3z"/><path fill="#686461" d="m748 306 4 2v2l2 1 4 3v2h-5l-1 2-1-2q-1-3-6-4l-2-3 6 1z"/><path fill="#d0cfc1" d="m331 409-2 3-7 1h-25v-1l12-1 3-1z"/><path fill="#ac9d94" d="m496 847 3 10-6 1-2-4v-6z"/><path fill="#f0b89b" d="m278 671 2 3q-1 7-6 12l-2-2-3 3 5-11h2z"/><path fill="#dfdac6" d="M730 527v13l-1 13-1 12h-1v-10l1-15h-2l1-6 1-3z"/><path fill="#292624" d="M472 466h1v8h2q1 11-2 21-2-4-2-10v-7l1-3z"/><path fill="#e9dfc8" d="m562 447 2 1-1 1q-6 5-8 11l-2 5-3 9-1 2h-1a36 36 0 0 1 11-26z"/><path fill="#eadec5" d="M634 448q13 0 25 8l-2 1-5-2q-9-6-20-4v3l-5-5q3-2 7-1"/><path fill="#171515" d="m207 329 2 1-2 3-3 4-1 2-7 10-1-4 3-5 2-2 1-2-3 1q2-4 6-6z"/><path fill="#eeb699" d="M494 828h1v3l1 7 2 6 1 6v6l-3-5-3-4z"/><path fill="#c9c8bc" d="m585 420-1 2-4 1-3 1h-2l-6 1h-2l-10 3-6-1 18-5 6-1 2-1z"/><path fill="#6a6765" d="m244 332 1 2-2 1-2 1-2 2-4 5-2-3-2 4v-3l-4 2 1-5 7-3 2 1z"/><path fill="#221f1e" d="m204 277 2 4-5 6h-2l-1 2-1 3-3 1q2-8 7-14h3z"/><path fill="#232120" d="m596 109 5 4 4 4 2 1 2 2 1 4-1 3h-3l-1-2-9-14z"/><path fill="#dddccb" d="m428 415 20 2 10 2q-5 3-10 1h-4l-3-1h-4l-9-2z"/><path fill="#bfa696" d="m420 824 3 6 1 2-2 5-5 2c1-11 1-11 3-15"/><path fill="#ecb094" d="M607 432v2l-3 1-4 1h-2l-7 3-6 1-3 1h-2q2-4 6-5l2-1h3l8-2z"/><path fill="#3b2e2c" d="m463 425-2 2-9-1h-5l-2-1h-5q-3 1-5-2 14-3 28 2"/><path fill="#23211f" d="M254 323h3c-1 11-1 11-3 15l-2-2-3 6-5 1 8-12q3-2 2-6z"/><path fill="#322d2a" d="m241 302 3 1c-5 4-5 4-8 4l-1 3-2-2-1 5h-3l-2-2-2-1q3-4 8-5 4 0 8-3"/><path fill="#1d1b1a" d="m681 184 4 1q-6 8-14 12l-3-1q1-4 5-6l7-5z"/><path fill="#4e4945" d="M269 158h9q5 0 9 2-2 3-5 2h-9v-2z"/><path fill="#48423f" d="m423 139 7 4h3v4l3 1-7 1-6-5 1-3z"/><path fill="#e9ddc5" d="M218 551v6l-2 3 4-1-5 8-2 2-1 2v-8l1-2 1-2 1-3z"/><path fill="#f6d9bb" d="m701 446 4 1 1 6h2l-1 9-4-7v-2l-1-2h-2z"/><path fill="#3a3533" d="M227 320q1 5-2 10l-3 6-2 5q-2-4 1-9l-2 1q2-8 8-13"/><path fill="#443d3a" d="M705 205q-1 3-6 5l-3 1-7 2v-2l-2-1 5-2 4-2z"/><path fill="#7a7875" d="M583 71h4l2 9 1 7v2l-4-3-1-2-1-3 1-6z"/><path fill="#383331" d="m521 55 5 3v2l2 1 5 4v2l2 1 4 3-11-5v-2h-2c-5-5-5-5-5-9"/><path fill="#bcbab4" d="M568 33q8 4 12 11l-2 1-4-2-1 3q-4-6-5-13"/><path fill="#edbfa3" d="M665 723c6 6 6 6 6 9q1 5-2 6l-1-2-3-4q-2-4 0-9"/><path fill="#47413d" d="m155 367 2 1-1 2q-2 5-2 10l4-4-5 11-2 3-1 2v-8l2-13z"/><path fill="#3e3331" d="m178 275 1 2-4 8-2 3-1 2h-3l-1-4 3-4 2-2z"/><path fill="#5f5a58" d="m367 212 11 1v2l3 1h-34v-1l20-1z"/><path fill="#0f0f0f" d="m374 151 8 2h2l11 4v1l-22-3z"/><path fill="#908e8c" d="M561 90q5 3 9 8v2h3l3 1 1 2q-9-1-16-9l-2-2z"/><path fill="#9e9c99" d="m660 62 4 2v2l2 10 1 6h-2l1 9-2-6-3-15z"/><path fill="#ebe2c9" d="M564 534h2l1 4h2q3 2 5 5l3 1-1 4h-3l-4-4-1-3z"/><path fill="#171616" d="M249 318q1 3-2 5l-3 3-3 3-4 2-2 4q1-8 6-15l1 5 2-2z"/><path fill="#494440" d="m363 136 3 1 11 3-3 3q-7 0-15-4z"/><path fill="#252220" d="m511 97 10 4v3l3 1 5 3-2 2q-5 0-8-5l-2-2-2-2z"/><path fill="#45312f" d="m309 86 5 1 3 1 3 3-9 1h-6l1-3h3z"/><path fill="#b9a699" d="M518 841h1l1 4 1 3v6h-7l2-9h2z"/><path fill="#1f1d1c" d="m390 562-4 3-11 1h-8l3-3 7-1z"/><path fill="#ece8d1" d="m314 555 17 3v1l-7 1v1h-4l-3-1-4-1z"/><path fill="#101010" d="m568 544 8 5q6 6 14 9v2q-12-2-20-12z"/><path fill="#433b38" d="M119 307h3q0 7-3 12l-2 3-1 2h-1z"/><path fill="#b8b6b1" d="M708 146v8l-1 2-1 2h-1l-1-5-5 8-3-1 7-9z"/><path fill="#87817d" d="M540 830v14l-3-1-2-8-1-4z"/><path fill="#3d2f2d" d="M162 327h2l-3 12v3l-1 3h-2l-1-6-4 2v2l-2-1 7-7z"/><path fill="#2a2725" d="M248 311q2 5-1 10h-2l-1 2-4 4c0-7 0-7 3-11l3-2z"/><path fill="#3e3633" d="M199 303q-1 4-6 7l-1-2-7 5q1-4 4-8c6-4 6-4 10-2"/><path fill="#3d3734" d="m722 223-1 4-3-1-15-3-5-1c7-4 16-1 24 1"/><path fill="#efd2b5" d="M470 819h1l1 8h1l1 6 1 4-2 7-3-13h-1z"/><path fill="#ecb397" d="m362 766 2 1-2 5-1 2q-2 7-6 7l-2 1q1-6 5-10z"/><path fill="#382d2b" d="m586 428-4 3-3 1-12 4-2-2c16-9 16-9 21-6"/><path fill="#7e7c79" d="M757 262q6 4 9 9l-4-1v2l-2-1-6-2v-3l2-1z"/><path fill="#3e302e" d="M531 99q7 2 10 7l2 3 2 2-3 1q-7-4-11-12z"/><path fill="#9d928b" d="M401 820q3 3 2 7l-3 4-2 1-1-4 1-7z"/><path fill="#c5a592" d="M319 763h3v5l-1 3-2 3-1 2-3-1z"/><path fill="#ac9d94" d="m265 696 2 2-2 3-4 8-3 5q-2-5 1-11h2z"/><path fill="#e4c1a7" d="M268 695q2 3-1 7l-2 4-1 2-2 4-3 6h-2v-8l2 2 1-3 2-4 1-2z"/><path fill="#e6d9c2" d="m379 652 1 2-5 9q-5 9-3 17l-3-3v-8l4-8z"/><path fill="#3e302e" d="m194 442 2 1v2l-13 5-1-2c9-7 9-7 12-6"/><path fill="#302c2a" d="m240 278 2 2-2 4-2 1-1 2h-3l-2 4-2-2-3 1v-2l3-2 7-6 1 1z"/><path fill="#3c3431" d="m667 194 2 1h3v3q-6 5-13 5v-3l4-2v-2z"/><path fill="#262422" d="m397 151 6 2-1 5-6 2-6-5 9-1-2-1z"/><path fill="#322a28" d="M273 121q9 2 16 6h-13l-5-3 2-2z"/><path fill="#342e2c" d="M512 113q10 3 17 11v2l-7-4-6-4-3-1z"/><path fill="#372c2a" d="m495 449 4 2-10 7h-2q0-4 3-5l2-2 2-1z"/><path fill="#cfcdc4" d="M227 434h4l-1 10-5-1z"/><path fill="#3a2f2d" d="m206 415 2 1-4 6-2 2-3 4h-2l-1-4 2-2 2-2z"/><path fill="#d1d0c3" d="M687 416v1h-9v2l-19-1v-1q14-3 28-1"/><path fill="#6b6965" d="m749 387 5 6h3q3 3 3 7h-2l-1 2-4-6-2-3z"/><path fill="#ece1c8" d="m257 349-1 6 3-2 3-1 2 1v5l-1-4q-7 3-13 8l-2-1 4-5 2-3z"/><path fill="#acaaa7" d="M203 337v9l-3 4-2 1-3-1 3-6 2-3z"/><path fill="#767472" d="M655 186h2c-2 7-2 7-5 10l-3 5 6-2-1 3-7 2q1-9 7-16z"/><path fill="#2c2725" d="M517 175h1l1 2v3l1 3 3 4 1 5 1 3v2l-3-3v-2h-2l-4-15z"/><path fill="#1a1817" d="m561 114 9 7 3 3 4 7-1 4-1-2q-2-6-8-10z"/><path fill="#efae92" d="m512 825 2 1 1 4 1 3v3l1 2 1 7h-2l-1 2-2-9v-2z"/><path fill="#524e4b" d="m738 341 5 3 4 3-1 3v5q-5-4-8-12z"/><path fill="#e7e5ce" d="M715 633h1q0 9-3 17l-6-5-8-3-1-2q4-1 8 1l4 4v2l3-4z"/><path fill="#b8b6b3" d="m223 295 2 1-18 18q1-7 7-11z"/><path fill="#433c39" d="m730 227 12 1 3 6-1 2-2-1-9-5z"/><path fill="#463f3c" d="M538 162q5 2 7 7l1 2q4 4 4 10l-6-7-4-5q-2-3-2-7"/><path fill="#7c7a78" d="M651 108h1l1 11h-2v8h-2l-1-13h2z"/><path fill="#f0dbc1" d="M259 659v5l-1 3-2 3-1 2 2 1q-1 5-5 8l1-5-3 2 6-12 1-2z"/><path fill="#3e2f2d" d="M396 565h2v1q-11 3-23 2v-1l6-1z"/><path fill="#eae5ce" d="m298 551 3 1 13 3-1 4-15-6z"/><path fill="#0d0d0d" d="m206 415-4 4-1 2-6 3-2 1q2-12 13-10"/><path fill="#181716" d="M232 369h2l-7 9-2 4-1-3 4-5 2-3zm-10 12 2 2-9 6q3-5 7-8"/><path fill="#d3ac98" d="m531 824 3 3 2-2 1 3h2v3h-5l2 3 1 3-1 2q-5-7-5-15"/><path fill="#d8af9a" d="m446 819 5 8q-3 3-7 2l-1 2v-8l2-1z"/><path fill="#282624" d="M753 410q4 0 7 3l1 7q-7-2-7-5z"/><path fill="#b5b3ae" d="M761 343h2l1 2v2l1 3 2 4 2 7-5-5-2-2q-2-5-1-11"/><path fill="#b5b4ae" d="M767 296q5 4 6 10l1 3 1 3 1 2-1 5-1-2-1-3-2-3-3-5-1-5v-3z"/><path fill="#44322f" d="m745 275 2 2h3l1 2 3 7h-2l-1 2-4-4v-5h-2l-1-3z"/><path fill="#2b2826" d="m567 190 2 2-1 7 2 1 1 6v3l-1 5h-2l-1-16v-2z"/><path fill="#a3a19e" d="m648 173 2 4-3 6-5 1v2l-3 1 4-7z"/><path fill="#ececd6" d="M694 129h2l1 11v6l-3 1-2-15h1l2 8z"/><path fill="#4c4744" d="m593 56 11 11 1 2 6 9q-4-1-6-5l-5-5-3-5-4-5z"/><path fill="#2b2826" d="m447 48 10 4-1 3-5-1-3-1-7-3 2-1 5 2-1-1z"/><path fill="#e8b096" d="m644 730 4 5-1 4-2 1-3-1-1-4-1-2v-2l3 1z"/><path fill="#e4e4cf" d="m370 640 2 1-2 2-13 16-1-2 1-2 2-11h1l1 5z"/><path fill="#e5dec7" d="m336 559-1 4-11-1-1-3z"/><path fill="#63605d" d="m181 395 2 1-1 1-2 2-2 2-3 4 2-2 3-1 2 1-10 7-2-1q4-8 11-14"/><path fill="#2c2725" d="m741 386 5 7 4 4-1 3-5-1-1-2 1-3-1-1q-2-3-2-7"/><path fill="#23201f" d="M211 339v7l-1 2-1 2h-3l-2 1 1-4-4 4-2-1z"/><path fill="#262221" d="M310 83h5l3 1 6 2-8 3-6-3z"/><path fill="#787572" d="M609 799c5 4 5 4 5 8l-1 5h-3l-1-4-1-3z"/><path fill="#918e8b" d="m283 705 2 1-4 9-2 3-3 3 4-11 2-3z"/><path fill="#554f4c" d="m299 425 2 1v3l-2 1h-3l-2 1-7 4-2-1 5-4 3-2z"/><path fill="#e6dec7" d="m711 412 2 2q5 5 12 6h2l6 2 1-2 1 4-9-2-3-1c-7-1-7-1-11-5z"/><path fill="#1e1c1b" d="m243 343 1 2-3 7-1 4-2 3-1 3-4 5q2-13 10-24"/><path fill="#494440" d="m690 188 2 1-5 5-2 1-8 6-3-1z"/><path fill="#403532" d="m479 185 8 10-1 3-7-5 2-3z"/><path fill="#686462" d="M697 136h1c1 16 1 16-3 22h-1v-7l1-5h2z"/><path fill="#c0beb6" d="m639 110 4 7v2l1 2h1v9l-3-3-3-12-1-3z"/><path fill="#615d5a" d="m410 116 15 6v1q-6 0-13-3l-5-1z"/><path fill="#8a8886" d="M610 102q7 5 9 12v3l1 2h-2c-8-14-8-14-8-17"/><path fill="#4a4541" d="m436 40 10 4 3 1 2 1-1 2q-7 0-12-5z"/><path fill="#d6cfbc" d="M738 587h1l1 16 2-1-3 8h-2z"/><path fill="#473c3a" d="m694 557 2 1q-4 4-10 5l-3 1-7 1v-2l3-1 7-2z"/><path fill="#3f302e" d="M554 526q5 2 6 6l2 8h-2l-3-5-2-2z"/><path fill="#dbdacd" d="m759 438 4 2v15l-2 2z"/><path fill="#453f3c" d="m433 73 15 5v2l3 1-2 1-4-2-2-1-2-1-2-1-6-3z"/><path fill="#c1c0b7" d="m555 63 8 6 2 2 1 1-2 3-10-10z"/><path fill="#c6a08f" d="m472 799 1 9-8-5q4-5 7-4"/><path fill="#c4c3bd" d="M724 488h1l-1 18-4 3 2-11v-3l1-2z"/><path fill="#e6d5bc" d="m537 217 6 4-2 2 1 4v7l-4 2-2-2h4l-1-10z"/><path fill="#c2c0b9" d="M658 167h1l1 6 1 5-1 4-1 2-1 2-2-1v-2l1-11z"/><path fill="#b29e92" d="M343 762v5l-3 5h-3l-1 3v-5l1-3 2-2 1-2 2 1z"/><path fill="#eab398" d="m289 694 2 4-4 7-3-1-1-3 3-4 2-2z"/><path fill="#131211" d="m590 559 19 4v2q-10 0-19-4z"/><path fill="#edebd3" d="M540 523h2l1 2 3 6 2 3 1 2 1 2 2 3v5l-5-9-1-2-2-3-1-2z"/><path fill="#c2ac9c" d="M462 461h1l-2 20h-1v-16z"/><path fill="#d3d2c4" d="m727 426 4 1h3l8 3-3 3-14-5z"/><path fill="#0e0e0e" d="m211 386 1 3-10 9q1-7 7-11z"/><path fill="#2b2826" d="M193 325h3v2h-3l1 3c-5 5-5 5-9 6l3-4 1-3z"/><path fill="#2c2625" d="M741 300c8 2 8 2 10 5l-1 2-2-1 2 5q-4-1-6-6l-2-2-1-1z"/><path fill="#382f2d" d="M590 184h3v15l-3-1z"/><path fill="#41302e" d="M285 170q-4 3-8 2h-5c-6 0-6 0-8-2z"/><path fill="#585350" d="M688 151h1l1 10-3 2-1 4-2 1 1-7v-2c1-6 1-6 3-8"/><path fill="#463b38" d="M506 149q5 1 6 5c2 5 2 5 1 9q-4-2-5-7l-1-3z"/><path fill="#888683" d="M668 136q4 4 3 10v2l1 6q-4-2-5-5z"/><path fill="#ecb99c" d="m570 808 4 6v2l1 2-2 2h-2l-3-6z"/><path fill="#f1e4ca" d="M393 788v5l-1 2-1 2-1 2h2v5l-2 1 1-4-6 5 5-12 2-4z"/><path fill="#352b29" d="m561 536 8 9-2 4-3-4-2-2z"/><path fill="#1b1a1a" d="M270 502h1l5 20h-3l-2-9-1-2v-3l-1-2z"/><path fill="#ebd3ba" d="M509 461v1h-6l-3 1h-3l-1 2-4 3-2 2-1 1-2-1q8-11 22-9"/><path fill="#282321" d="M238 210v5l-11 1v-3l4-1 2-1z"/><path fill="#7a7876" d="m620 119 1 2 4 5q3 4 3 9h-3l-3-6-2-4z"/><path fill="#514e4a" d="M649 103h3l-1 14-1-3h-2v-7z"/><path fill="#797774" d="M480 86h3v2l2 1 8 3v2h2l-1 2-3 1v-2l-2-1-6-4-2-2-1-1z"/><path fill="#b5b3ad" d="m567 77 10 12v2h-2l-9-12z"/><path fill="#7a7572" d="m571 820 4 4 2-1v8l-4-1z"/><path fill="#dfd9c4" d="M234 617h1c-1 18-1 18-4 23l-2-1z"/><path fill="#3d2e2c" d="M475 485q2 6-1 12l-1 2-1 5h-3l1-2 4-14z"/><path fill="#f7d3b3" d="M271 468h1v8l1 8-1 5h-2v-15z"/><path fill="#e2baa0" d="M563 450q-1 8-8 11-1-5 3-8l1-2z"/><path fill="#282523" d="m202 360-2 7-6-1q1-6 4-6z"/><path fill="#afadaa" d="m200 271 2 1-2 2-12 15-1-2c8-12 8-12 13-16"/><path fill="#473b38" d="M288 166q-7 5-15 3l-8-1v-1z"/><path fill="#2a2624" d="m306 160 1 3h-7l-6-2q5-3 12-1"/><path fill="#8c8a87" d="M690 151h2v10q-2 4-6 4l1-6 2 2z"/><path fill="#2f2927" d="m613 114 3 2v4h2v2l2 1-1 6h-2l-1-6-2 2v-3z"/><path fill="#6e6b68" d="M604 97q4 3 4 8l1 3v2l-4-3-1-2-1-2z"/><path fill="#252220" d="m404 28 5 1 2 1 7 3v3l-10-4-2-2-2-1z"/></svg>